<svg width="153" height="242" viewBox="0 0 153 242" fill="none" xmlns="http://www.w3.org/2000/svg">
<g clip-path="url(#clip0)">
<path d="M99.1946 217.518C99.1946 217.518 98.3843 222.674 98.2717 224.53C98.2717 224.53 105.789 230.845 108.142 232.054C108.142 232.054 111.079 234.009 110.843 237.472C110.843 237.472 94.2765 237.87 89.0996 236.288C89.0996 236.288 91.2604 222.513 91.9244 217.518C91.9244 217.518 97.1801 216.198 99.1946 217.518Z" fill="#383264"/>
<path d="M129.367 235.79C129.367 235.79 130.357 238.194 124.269 240.424C124.19 240.449 124.1 240.486 124.021 240.511C117.651 242.765 117.235 242.479 114.129 241.221L116.695 237.335L122.04 232.751C122.04 232.751 128.534 233.112 129.367 235.79Z" fill="#383264"/>
<path d="M128.478 233.449C128.478 233.449 129.176 234.383 129.367 235.79C129.367 235.79 126.846 234.246 123.267 237.061C123.267 237.061 118.068 241.856 114.129 241.221C114.129 241.221 113.724 240.062 114.41 239.054L118.225 235.093L120.904 232.764L125.36 232.054L128.478 233.449Z" fill="#FFC800"/>
<path d="M124.122 231.418C122.007 229.861 120.037 221.454 120.037 221.454H114.129C115.4 228.466 114.41 239.054 114.41 239.054C116.379 240.15 121.444 236.288 121.444 236.288C124.966 231.817 128.478 233.449 128.478 233.449C127.499 231.58 124.122 231.418 124.122 231.418Z" fill="#383264"/>
<path d="M22.4977 221.927C24.5797 221.927 26.2679 224.879 26.2679 228.504C26.2679 232.141 24.5797 235.08 22.4977 235.08H19.8643V223.484L22.4977 221.927Z" fill="#175757"/>
<path d="M23.623 228.504C23.623 232.141 21.9349 235.08 19.8529 235.08C17.7709 235.08 16.0828 232.128 16.0828 228.504C16.0828 224.867 17.7709 221.927 19.8529 221.927C21.9462 221.927 23.623 224.867 23.623 228.504Z" fill="#383264"/>
<path d="M50.2504 221.927C52.3324 221.927 54.0206 224.879 54.0206 228.504C54.0206 232.141 52.3324 235.08 50.2504 235.08H47.6169V223.484L50.2504 221.927Z" fill="#175757"/>
<path d="M51.3757 228.504C51.3757 232.141 49.6876 235.08 47.6056 235.08C45.5236 235.08 43.8354 232.128 43.8354 228.504C43.8354 224.867 45.5236 221.927 47.6056 221.927C49.6876 221.927 51.3757 224.867 51.3757 228.504Z" fill="#383264"/>
<path d="M75.6171 175.555L65.5784 157.893C65.5108 157.743 65.432 157.594 65.3308 157.457L65.2857 157.382L65.2745 157.395C64.8581 156.871 64.2053 156.548 63.3838 156.548H28.2146C26.3577 156.548 24.3207 158.129 23.6905 160.06L8.23852 207.416C7.97968 208.201 8.00219 208.911 8.23852 209.496H8.22727L8.28354 209.584C8.35106 209.733 8.42984 209.883 8.51988 210.007L18.4798 227.507L36.7227 210.916H45.6473C47.5042 210.916 49.5412 209.334 50.1714 207.404L54.2117 195.011L75.6171 175.555Z" fill="#CC5468"/>
<path d="M8.23839 209.496L8.2834 209.596C8.35093 209.746 8.42971 209.895 8.51974 210.02L18.4797 227.52L30.7467 216.372C31.737 203.007 33.6502 177.535 33.6502 177.535L23.7016 160.06L8.23839 207.416C7.9908 208.201 8.01331 208.911 8.23839 209.496Z" fill="#B1495A"/>
<path d="M69.4272 164.656H33.1889C31.1069 164.656 28.8448 166.413 28.1358 168.58L12.4475 216.932L13.2128 218.278L29.1937 169.016C29.7451 167.334 31.5683 165.914 33.1889 165.914H70.1362L69.4272 164.656Z" fill="#993F4E"/>
<path d="M38.1632 174.023C36.3063 174.023 34.2693 175.605 33.639 177.535L18.1871 224.891C17.5569 226.822 18.5585 228.404 20.4154 228.404H55.5846C57.4415 228.404 59.4785 226.822 60.1088 224.891L75.5607 177.535C76.1909 175.605 75.1893 174.023 73.3324 174.023H38.1632Z" fill="#993F4E"/>
<path d="M40.7404 187.4C39.4349 187.4 38.0056 188.509 37.5554 189.879L26.6839 223.21C26.245 224.568 26.9428 225.689 28.2483 225.689H53.0074C54.3128 225.689 55.7421 224.58 56.1923 223.21L67.0638 189.879C67.5027 188.521 66.8049 187.4 65.4995 187.4H40.7404Z" fill="#8F3B49"/>
<path d="M64.0478 135.074L49.001 178.021" stroke="#383264" stroke-width="1.5" stroke-miterlimit="10" stroke-linecap="round"/>
<path d="M63.6765 136.133L61.4932 142.373" stroke="#175757" stroke-width="3" stroke-miterlimit="10" stroke-linecap="round"/>
<path d="M77.08 135.074L62.0332 178.021" stroke="#383264" stroke-width="1.5" stroke-miterlimit="10" stroke-linecap="round"/>
<path d="M76.7087 136.133L74.5254 142.373" stroke="#175757" stroke-width="3" stroke-miterlimit="10" stroke-linecap="round"/>
<path d="M75.212 126.156C75.212 126.156 77.6766 129.955 75.5609 134.85C75.5609 134.85 71.4419 135.149 71.4419 135.049C71.4419 134.95 70.9242 130.74 71.2618 130.727C71.6107 130.715 75.212 126.156 75.212 126.156Z" fill="#CC704F"/>
<path d="M80.9403 133.517H58.9722V136.631H80.9403V133.517Z" fill="#175757"/>
<path d="M65.8035 181.558H43.8354V184.672H65.8035V181.558Z" fill="#175757"/>
<path d="M134.094 122.282C136.502 115.183 136.333 101.357 136.333 101.357C136.232 99.3764 136.108 97.5579 135.962 95.8764C132.777 95.4155 130.594 96.1504 129.311 96.8853C129.389 97.1967 129.446 97.3586 129.446 97.3586C130.819 104.222 130.65 123.291 130.65 123.291L134.094 122.282Z" fill="#FF8C63"/>
<path d="M122.558 76.9563C124.269 78.8495 128.511 93.9955 129.31 96.8728C130.593 96.1504 132.777 95.403 135.962 95.8639C135.163 86.2357 133.913 81.5275 133.913 81.5275C133.913 78.1022 131.674 76.9563 131.674 76.9563C131.674 56.1803 126.677 42.0681 126.677 42.0681C124.899 41.545 122.614 40.9222 120.408 40.3492C120.667 45.0076 122.547 55.3583 122.547 55.3583C125.934 64.8245 122.547 71.3762 122.547 71.3762V76.9563H122.558Z" fill="#DDAC00"/>
<path d="M120.408 40.3368C120.408 40.3368 122.479 38.2443 125.54 40.835C125.54 40.835 128.804 79.0737 132.36 117.574L126.835 117.449C126.835 117.449 124.381 74.1911 122.558 55.3458C121.871 48.2959 121.219 43.376 120.408 40.3368Z" fill="#CC5468"/>
<path d="M82.0769 49.3048C82.0769 49.3048 78.6894 50.9614 78.408 59.2195C78.408 59.2195 75.1668 64.8245 76.4385 72.9207C76.4385 72.9207 76.1572 80.2446 75.1668 83.0471C75.1668 83.0471 73.6137 93.0116 73.6137 98.1557C73.6137 98.1557 71.7793 100.958 72.207 104.384C72.207 104.384 78.3855 105.629 81.2103 105.168L82.9547 101.581L93.4548 82.5862C93.4548 82.5862 92.093 66.3939 91.9355 66.8548C91.7779 67.3156 89.966 49.0557 82.0769 49.3048Z" fill="#FFC600"/>
<path d="M123.267 94.3069C123.29 91.2553 122.558 76.9563 122.558 76.9563V71.3762C122.558 71.3762 125.946 64.8245 122.558 55.3583C122.558 55.3583 120.679 45.0077 120.42 40.3493L118 39.714C119.092 40.0005 111.99 45.5682 113.048 45.8546C107.928 44.4472 112.227 38.2567 112.227 38.2567H99.8134C87.0625 43.6002 82.0657 49.3173 82.0657 49.3173C86.376 50.2764 87.749 61.5238 87.749 61.5238C88.0979 67.0541 87.749 80.7802 87.749 80.7802C85.3406 86.1236 86.5448 89.9226 86.5448 89.9226C78.9708 105.168 85.712 105.542 85.712 105.542V108.419C113.465 118.533 123.132 108.419 123.132 108.419L123.267 103.835C127.6 103.835 123.267 94.3069 123.267 94.3069Z" fill="#FFC600"/>
<path d="M97.3938 111.782L97.8327 105.218C93.9951 102.951 86.1397 102.254 86.1397 102.254C85.5319 99.065 88.0079 89.6735 88.0079 89.6735C87.6365 85.4261 89.5609 80.693 89.5609 80.693C91.1815 58.8085 86.1397 54.5735 86.1397 54.5735C87.3101 57.8867 87.7603 61.5113 87.7603 61.5113C88.1091 67.0416 87.7603 80.7677 87.7603 80.7677C85.3519 86.1112 86.5561 89.9101 86.5561 89.9101C78.9708 105.168 85.712 105.542 85.712 105.542V108.419C90.0336 109.989 93.9163 111.072 97.3938 111.782Z" fill="#DDAC00"/>
<path d="M120.408 17.842L122.344 24.1321L120.307 24.7673L120.408 17.842Z" fill="#CC704F"/>
<path d="M95.9871 16.2477C95.9871 16.2477 85.9934 19.2121 84.7329 35.4044H86.9837L87.9741 33.0628L87.8278 42.0931H94.1076V35.5539L95.9871 37.5841C95.9871 37.5841 93.8713 23.5716 97.3938 20.1463L95.9871 16.2477Z" fill="#241F44"/>
<path d="M100.736 105.542C95.3117 104.583 85.7119 105.542 85.7119 105.542V108.419C113.465 118.533 123.132 108.419 123.132 108.419L123.267 103.836C118.653 106.626 100.736 105.542 100.736 105.542Z" fill="#DDAC00"/>
<path d="M118.754 39.9133C114.478 38.7798 112.227 38.2567 112.227 38.2567H99.8135C97.3039 39.3154 95.0981 40.3742 93.1624 41.408C95.9759 46.4774 101.344 54.4241 109.008 58.4472C109.019 58.4472 115.626 51.1234 118.754 39.9133Z" fill="#FF8C63"/>
<path d="M111.394 33.1126C111.394 33.1126 111.518 35.7158 112.216 38.2567L109.019 43.5254L99.5884 39.5147C99.5884 39.5147 101.299 34.5699 99.5884 30.9577C99.5884 30.9577 93.4999 28.9524 94.1639 15.1142C94.1639 15.1142 94.4678 4.19063 106.904 3.28137C106.904 3.28137 121.174 3.45575 120.42 17.842C120.42 17.842 120.24 31.2691 120.319 33.3118C120.307 33.3118 118.304 35.9773 111.394 33.1126Z" fill="#FF8C63"/>
<path d="M111.394 33.1125C111.394 33.1125 107.072 31.9542 107.387 27.1214C107.387 27.1214 104.349 34.3581 112.216 38.2443L111.394 33.1125Z" fill="#CC704F"/>
<path d="M106.892 3.28137C94.4677 4.19063 94.1526 15.1142 94.1526 15.1142C93.4998 28.9524 99.5771 30.9577 99.5771 30.9577C101.04 29.2513 100.387 27.9061 100.387 27.9061C98.6205 25.5271 99.2507 22.1641 99.2507 22.1641C101.276 18.2406 103.932 22.1641 103.932 22.1641L104.259 26.9969L105.756 26.8972L106.149 21.0555C111.765 14.8775 117.707 14.9025 120.296 14.6658C118.957 3.4433 106.892 3.28137 106.892 3.28137Z" fill="#383264"/>
<path d="M141.701 118.595C141.701 118.595 126.835 115.818 113.892 118.882C113.892 118.882 107.736 128.286 114.748 144.03C114.748 144.03 119.418 152.724 145.111 149.436L141.701 118.595Z" fill="#CC5468"/>
<path d="M134.206 135.062C134.206 135.062 120.476 138.275 113.138 133.816C113.138 133.816 112.531 133.567 111.63 133.218C112.024 136.369 112.947 139.994 114.748 144.03C114.748 144.03 119.418 152.724 145.111 149.435L141.713 118.595C141.701 118.595 135.759 124.699 134.206 135.062Z" fill="#B1495A"/>
<path d="M141.701 118.595C141.701 118.595 129.817 150.843 145.1 149.435C145.1 149.435 164.412 147.206 141.701 118.595Z" fill="#CC5468"/>
<path d="M123.267 132.172L112.699 164.195L106.116 196.729L99.1945 217.518C99.1945 217.518 93.7925 217.979 91.9243 217.518L94.4115 198.673C94.4115 198.673 95.2443 187.413 98.7781 180.512C98.7781 180.512 102.717 137.752 104.281 128.336C104.281 128.336 111.405 120.601 123.267 132.172Z" fill="#CC704F"/>
<path d="M103.842 131.4C103.752 132.122 103.651 132.919 103.539 133.766L106.138 139.87C113.408 140.168 119.441 136.419 122.716 133.829L123.267 132.16C121.973 130.902 120.735 129.88 119.564 129.046L111.867 125.857L103.842 131.4Z" fill="#B16144"/>
<path d="M115.299 156.286L113.217 147.878C113.217 147.878 107.939 144.64 102.346 144.266C101.58 151.428 100.77 159.587 100.117 166.338C102.852 171.731 105.508 176.888 106.746 179.018L108.276 185.98L112.688 164.195L115.299 156.286Z" fill="#B16144"/>
<path d="M88.5254 136.133C88.5254 136.133 100.342 160.11 103.437 165.404L105.159 173.188C105.159 173.188 102.593 190.315 107.657 200.902C107.657 200.902 113.284 218.963 114.129 221.454C114.129 221.454 116.942 224.256 120.037 221.454C120.037 221.454 117.786 193.117 117.223 184.71C117.223 184.71 118.068 163.535 115.535 156.996L109.908 134.265C109.908 134.265 94.7152 124.923 88.5254 136.133Z" fill="#FF8C63"/>
<path d="M85.7121 108.419C85.7121 108.419 112.722 110.91 123.132 108.419V116.204C123.132 116.204 125.383 125.857 125.383 131.462C125.383 131.462 116.098 134.887 109.909 134.265C109.909 134.265 93.0273 131.462 88.5256 136.133C88.5256 136.133 82.8986 119.006 85.7121 108.419Z" fill="#383264"/>
<path d="M112.553 134.314C111.855 129.893 113.42 126.119 113.42 126.119C116.706 124.425 120.96 120.177 120.96 120.177C117.584 122.868 112.441 123.167 112.441 123.167C115.277 121.224 119.204 115.83 119.204 115.83C117.314 118.521 111.36 119.729 111.36 119.729C105.002 113.887 97.8328 115.232 97.8328 115.232C101.49 114.933 106.195 118.795 106.195 118.795C107.41 122.083 109.92 134.277 109.92 134.277C110.741 134.352 111.642 134.352 112.553 134.314Z" fill="#241F44"/>
<path d="M147.599 126.903C152.618 135.348 149.332 138.861 149.332 138.861C142.906 143.943 139.428 136.519 138.021 132.222C136.491 140.829 136.693 150.208 145.089 149.436C145.1 149.436 160.473 147.642 147.599 126.903Z" fill="#B1495A"/>
<path d="M147.115 126.106C147.013 125.944 146.901 125.782 146.8 125.62C146.901 125.77 147.013 125.944 147.115 126.106Z" fill="#DD464F"/>
<path d="M111.439 69.5577C111.439 69.5577 115.986 72.846 120.96 71.3388C120.96 71.3388 116.143 77.2303 111.439 69.5577Z" fill="#DDAC00"/>
<path d="M93.4548 69.6199C93.4548 69.6199 99.0932 76.0968 105.429 68.611C105.429 68.611 100.207 81.0542 93.4548 69.6199Z" fill="#DDAC00"/>
<path d="M80.0174 105.255L75.392 125.807C75.392 125.807 75.5158 132.035 72.7135 132.882L72.1508 137.092C72.1508 137.092 70.7215 138.225 69.6861 137.129L69.2922 133.891L65.8147 133.517C65.8147 133.517 66.7488 131.537 71.0141 126.903L73.355 104.583C73.3437 104.583 77.1026 101.88 80.0174 105.255Z" fill="#FF8C63"/>
<path d="M110.843 237.472C110.921 236.376 110.674 235.442 110.314 234.657C108.49 234.943 102.256 235.79 96.3923 235.08L89.5048 233.723C89.2572 235.28 89.0996 236.289 89.0996 236.289C94.2765 237.87 110.843 237.472 110.843 237.472Z" fill="#FFC800"/>
</g>
<defs>
<clipPath id="clip0">
<rect width="153" height="242" fill="white"/>
</clipPath>
</defs>
</svg>
