<svg width="137" height="243" viewBox="0 0 137 243" fill="none" xmlns="http://www.w3.org/2000/svg">
<g style="mix-blend-mode:lighten">
<path d="M46.1545 228.997C46.1545 230.172 45.0992 231.12 43.7905 231.12C42.4959 231.12 41.4265 230.172 41.4265 228.997V223.638C41.4265 222.462 42.4819 221.515 43.7905 221.515C45.0992 221.515 46.1545 222.462 46.1545 223.638V228.997Z" fill="#175757"/>
<path d="M43.8042 228.049C42.5096 228.049 41.4402 227.101 41.4402 225.925V228.997C41.4402 230.172 42.4955 231.12 43.8042 231.12C45.1128 231.12 46.1682 230.172 46.1682 228.997V225.925C46.1541 227.101 45.0988 228.049 43.8042 228.049Z" fill="#17142C"/>
<path d="M28.1289 228.997C28.1289 230.172 27.0735 231.12 25.7649 231.12C24.4562 231.12 23.4009 230.172 23.4009 228.997V223.638C23.4009 222.462 24.4562 221.515 25.7649 221.515C27.0735 221.515 28.1289 222.462 28.1289 223.638V228.997Z" fill="#175757"/>
<path d="M25.7649 228.049C24.4562 228.049 23.4009 227.101 23.4009 225.925V228.997C23.4009 230.172 24.4562 231.12 25.7649 231.12C27.0735 231.12 28.1289 230.172 28.1289 228.997V225.925C28.1289 227.101 27.0735 228.049 25.7649 228.049Z" fill="#17142C"/>
<path d="M51.9941 221.515H18.2366V225.622H51.9941V221.515Z" fill="#100E1E"/>
<path d="M52.374 173.4C55.4698 173.4 57.7071 175.662 57.3553 178.418L53.1198 211.543C52.768 214.298 49.9537 216.561 46.858 216.561H22.9365C19.8408 216.561 17.0687 214.298 16.7732 211.53L13.185 178.43C12.8895 175.662 15.169 173.4 18.2648 173.4H52.374Z" fill="#175757"/>
<path d="M57.3549 177.293H13.1704V185.988H57.3549V177.293Z" fill="#175757"/>
<path d="M52.374 181.438C55.4698 181.438 57.7071 183.7 57.3553 186.456L53.1198 219.581C52.768 222.336 49.9537 224.599 46.858 224.599H22.9365C19.8408 224.599 17.0687 222.336 16.7732 219.568L13.185 186.456C12.8895 183.688 15.169 181.426 18.2648 181.426H52.374V181.438Z" fill="#17142C"/>
<path d="M37.4584 141.146C38.5137 138.518 38.4012 133.033 38.4012 133.033L28.2556 138.619C28.2978 146.088 30.7885 147.453 30.7885 147.453C34.6581 148.616 39.344 147.453 39.344 147.453C39.4425 144.723 37.4584 141.146 37.4584 141.146Z" fill="#CC704F"/>
<path d="M73.2279 220.213C73.2279 220.213 73.5657 225.635 74.0441 227.227C74.0441 227.227 76.2674 231.587 76.3096 233.079L74.7617 234.583L68.1763 234.153L60.8028 233.648C60.8028 233.648 59.7897 230.867 60.6058 227.379C60.6058 227.379 60.7184 222.854 59.3816 220.188C59.3957 220.213 67.8948 215.006 73.2279 220.213Z" fill="white"/>
<path d="M80.8968 207.448L86.5114 222.374C86.5114 222.374 86.7084 223.676 84.9072 224.598C84.9072 224.598 73.1435 217.369 68.5139 210.014C68.5139 210.014 68.0637 201.268 74.2129 199.422L80.8968 207.448Z" fill="white"/>
<path d="M70.1885 208.484C70.1885 208.484 69.9352 203.479 72.4681 200.244C68.1622 203.05 68.514 210.014 68.514 210.014C73.1435 217.369 84.9073 224.598 84.9073 224.598C85.9345 224.068 86.3144 223.423 86.4411 222.968C85.0762 222.121 74.5225 215.36 70.1885 208.484Z" fill="#FFC600"/>
<path d="M120.381 122.037V123.68C120.381 123.68 125.785 126.84 126.362 131.251C126.362 131.251 126.882 135.674 121.704 138.619C121.704 138.619 116.526 134.587 113.824 128.976C113.824 128.976 113.824 127.307 113.824 125.589C113.824 125.146 113.233 121.468 113.233 121.468C113.233 121.468 118.383 120.179 120.381 122.037Z" fill="#FF8C63"/>
<path d="M100.104 177.798L82.7825 208.017C82.7825 208.017 74.3255 206.02 70.6951 200.775L81.5723 181.236L80.9673 173.994L90.0293 166.221L100.104 177.798Z" fill="#322E55"/>
<path d="M94.9262 123.023L100.105 177.798L94.9262 182.323L84.3867 180.326L80.9673 173.994L75.9297 138.366L73.228 135.661L69.696 134.018V119.547L79.5602 117.007L94.9262 123.023Z" fill="#433D71"/>
<path d="M78.6737 135.067H73.2281C73.2281 135.067 73.1155 135.156 72.9607 135.282L73.2281 135.965L75.9298 138.366L76.563 141.943L77.2666 139.402L79.2507 137.57L81.4317 133.108L78.6737 135.067Z" fill="#322E55"/>
<path d="M45.5776 121.746L45.7324 125.247L52.9511 174.234L54.3582 175.498L52.9511 177.482L54.3582 179.643L55.3573 180.541L54.3582 182.259L58.5656 222.361C63.3781 219.113 74.1568 220.605 74.1568 220.605L72.018 183.435L70.8078 181.274L73.214 177.849V142.158V119.446C54.1612 114.77 45.5776 121.746 45.5776 121.746Z" fill="#433D71"/>
<path d="M45.5071 121.696L45.6619 125.209L47.857 140.123C49.1094 140.161 50.2914 140.148 50.2914 140.148L50.1085 139.807V128.318L54.2736 124.072L69.302 123.882C69.302 123.882 72.4399 123.149 72.3133 122.644C72.257 122.378 71.4127 120.546 70.5121 118.827C53.3168 115.389 45.5071 121.696 45.5071 121.696Z" fill="#322E55"/>
<path d="M59.8039 221.692C60.1838 221.515 60.5638 221.35 60.9718 221.211L57.6369 190.512L58.2279 179.972L55.5543 177.975L56.3142 175.839L55.3995 173.969L56.3142 172.894L54.0627 170.101L51.8394 147.807L51.6846 144.47L50.3479 140.199L46.9707 133.778L52.937 174.247L54.3442 175.511L52.937 177.495L54.3442 179.656L55.3432 180.553L54.3442 182.272L58.5515 222.374C58.9033 222.147 59.2692 221.932 59.6632 221.742C59.7195 221.729 59.7617 221.717 59.8039 221.692Z" fill="#322E55"/>
<path d="M69.3724 123.933C80.8126 127.118 91.4787 129.153 95.4188 128.091L94.9403 123.01L79.5743 116.994L71.5113 119.067C64.1801 117.487 58.5092 117.664 54.3582 118.423C62.0412 120.925 69.3724 123.933 69.3724 123.933Z" fill="#322E55"/>
<path d="M59.2832 37.6121C59.2832 37.6121 73.8472 37.1445 78.8426 37.5615L81.2769 39.7859L79.8135 44.0198C79.8135 44.0198 71.9757 55.9758 71.9053 56.1654C71.835 56.355 65.1088 50.9962 65.1088 50.9962L59.2832 37.6121Z" fill="#383264"/>
<path d="M121.169 114.176V109.689C121.169 109.689 110.7 56.3803 100.555 48.6708L77.7589 39.9755L77.6041 30.7621H60.6058C60.6058 30.7621 61.1264 37.4478 60.6058 39.5585C60.6058 39.5585 44.9442 49.1005 36.5154 53.7262C36.5154 53.7262 28.0866 109.285 28.2414 122.467C28.2414 122.467 28.8746 123.162 30.5913 123.87L29.6485 132.287L39.3297 133.134L40.7368 126.536C40.7368 126.536 43.8607 126.119 45.7322 125.273L45.5774 121.772C45.5774 121.772 56.2014 117.702 73.0731 123.731C73.0731 123.731 88.2281 127.661 98.2189 124.148L94.9402 77.1579L107.745 115.035C107.745 115.035 109.152 116.021 111.488 116.299L112.403 123.036L121.704 121.885L121.169 114.176Z" fill="#383264"/>
<path d="M77.5902 30.7494H60.606C60.606 30.7494 61.1266 37.4351 60.606 39.5458L71.3425 55.3439L77.745 39.9628L77.5902 30.7494Z" fill="#FF8C63"/>
<path d="M60.8311 36.6769L67.3462 39.1666C67.3462 39.1666 70.5404 40.1272 74.1709 39.1666C74.1709 39.1666 75.8313 36.9928 77.6606 34.8822L77.5902 30.7621H60.606C60.606 30.7494 60.8592 33.9975 60.8311 36.6769Z" fill="#CC704F"/>
<path d="M57.3131 15.0777C57.3131 15.0777 57.9604 28.7273 61.816 32.3798L68.0215 37.1824C68.0215 37.1824 72.7355 38.1429 76.3659 37.1824C76.3659 37.1824 78.5048 34.8696 80.2215 30.6483C80.2215 30.6483 82.5714 19.3116 81.2909 11.6148C81.2909 11.6148 80.4326 -0.695101 63.7438 2.95742C63.7438 2.95742 56.0467 5.384 57.3131 15.0777Z" fill="#FF8C63"/>
<path d="M75.6484 45.0183C70.9766 46.1684 66.8818 45.6375 64.3208 45.0056L71.3425 55.3439L75.6484 45.0183Z" fill="#F1F2EB"/>
<path d="M59.2831 37.6121C59.2831 37.6121 55.7793 38.4083 54.8083 43.0467L72.1022 62.2066L83.3453 42.0988C83.3453 42.0988 81.5723 37.056 78.6595 37.5489L71.3423 55.3439L59.2831 37.6121Z" fill="#70505C"/>
<path d="M113.416 114.416L110.011 112.786L106.929 103.13C106.718 100.16 110.658 99.2121 110.658 99.2121C108.097 98.2515 105.972 99.2121 105.972 99.2121C106.507 97.5817 110.447 95.8629 110.447 95.8629C107.14 94.9023 104.185 96.4316 104.185 96.4316C104.199 90.9844 113.43 90.7948 113.43 90.7948C108.21 88.4061 102.68 91.2751 102.68 91.2751L94.9543 77.1326L107.759 115.01C107.759 115.01 109.167 115.996 111.502 116.274L112.417 123.01L121.718 121.86L121.184 114.163V112.584C117.638 112.318 113.416 114.416 113.416 114.416Z" fill="#175757"/>
<path d="M66.0657 111.876C59.7476 112.508 50.967 109.348 50.967 109.348C47.2803 107.768 48.6874 103.509 48.6874 103.509L50.4463 103.357L51.1499 97.0508C55.0758 100.703 62.8011 105.948 65.7561 107.92C58.1294 96.8992 50.2775 74.6555 50.2775 74.6555C49.9257 77.6508 47.6461 81.9352 47.6461 81.9352V95.9386L46.5063 107.907L43.7061 115.402L43.0025 123.01L39.1188 124.603C34.9255 123.175 30.5915 123.844 30.5915 123.844L29.6487 132.262L39.3299 133.108L40.737 126.511C40.737 126.511 43.8609 126.094 45.7324 125.247L45.5776 121.746C45.5776 121.746 47.8853 120.874 52.0083 120.546C50.1649 117.664 49.2221 113.923 49.2221 113.923C57.2991 118.65 66.6004 116.135 66.6004 116.135C72.3978 115.035 83.0218 115.351 83.0218 115.351C76.2534 110.764 66.0657 111.876 66.0657 111.876Z" fill="#475F5F" fill-opacity="0.99"/>
<path d="M86.9617 115.073C86.9617 115.073 92.5903 116.413 94.0818 119.244C94.0818 119.244 86.5817 123.655 77.7448 123.023C77.7448 123.023 61.633 118.043 56.314 120.432L56.328 120.445C60.7606 120.558 66.4173 121.355 73.059 123.731C73.059 123.731 88.214 127.661 98.2048 124.148L94.9261 77.1579L93.5893 115.086C93.5893 115.073 89.776 114.328 86.9617 115.073Z" fill="#175757"/>
<path d="M122.253 129.822V143.257L105.395 137.532L105.381 126.827L122.253 129.822Z" fill="#FFC600"/>
<path d="M113.81 128.331C113.81 128.331 113.487 143.927 118.186 128.963C118.186 128.963 115.766 126.511 116.005 126.865C116.245 127.206 113.81 128.331 113.81 128.331Z" fill="#FF8C63"/>
<path d="M76.3097 233.079C76.3097 233.079 76.7741 235.417 75.3951 236.921C75.3951 236.921 71.0329 238.703 60.9859 237.603C60.9859 237.603 60.1838 235.265 60.9859 233.079C60.9718 233.079 69.274 224.699 76.3097 233.079Z" fill="#FFC600"/>
<path d="M60.9717 237.616C71.0328 238.716 75.3809 236.934 75.3809 236.934C70.4699 227.038 60.9717 237.616 60.9717 237.616Z" fill="#175757"/>
<path d="M46.0418 140.97H23.7385V144.331H46.0418V140.97Z" fill="#175757"/>
<path d="M28.537 142.688H26.6655V211.176H28.537V142.688Z" fill="#100E1E"/>
<path d="M43.1152 142.688H41.2437V211.176H43.1152V142.688Z" fill="#100E1E"/>
<path d="M42.707 141.955C42.707 141.955 42.3552 146.391 41.131 147.466C41.131 147.466 35.5305 150.095 30.7884 147.466C29.3391 146.657 32.3785 141.955 32.3785 141.955C32.3785 141.955 41.9893 139.44 42.707 141.955Z" fill="#FF8C63"/>
<path d="M33.8981 141.589C32.9693 141.791 32.3502 141.955 32.3502 141.955C32.3502 141.955 31.5481 143.194 30.9712 144.508C31.4215 145.039 31.7451 145.469 31.7451 145.469C32.5894 147.074 33.2226 147.984 33.7151 148.477C34.1936 148.553 34.6579 148.603 35.1082 148.629C35.1504 148.527 35.1786 148.439 35.1786 148.439C35.1926 148.363 35.2067 148.275 35.2208 148.199C35.5866 146.025 34.7142 143.421 33.8981 141.589Z" fill="#CC704F"/>
<path d="M38.387 133.033L30.8728 132.375C29.916 133.601 28.2415 138.619 28.2415 138.619L29.6486 141.955C30.8025 142.524 32.5051 144.812 32.5051 144.812C35.3898 150.322 35.9386 147.782 35.9386 147.782C35.9526 147.706 35.9667 147.617 35.9808 147.542C36.614 143.775 33.476 138.631 33.476 138.631C35.3476 138.72 38.387 133.033 38.387 133.033Z" fill="#FF8C63"/>
<path d="M53.1057 219.581L55.4416 201.381C34.5595 206.083 14.7891 201.381 14.7891 201.381L16.7591 219.568C17.0546 222.336 19.8267 224.598 22.9224 224.598H46.8439C49.9396 224.598 52.7539 222.349 53.1057 219.581Z" fill="#175757"/>
<path d="M47.6319 81.9353C47.6319 81.9353 49.1939 82.8326 47.6319 81.9353C47.6319 81.9353 44.888 71.3569 45.0006 69.5622C45.0006 69.5622 44.9724 52.3359 44.0437 49.4291C44.0437 49.4291 46.6047 43.9693 51.0232 45.3216C51.0232 45.3216 51.966 56.7973 50.2633 69.1704C50.2633 69.1704 51.375 77.2464 47.6319 81.9353Z" fill="#FFC600"/>
<path d="M98.8943 48.0262C95.5172 43.8808 90.958 44.993 90.958 44.993C90.7329 47.7861 92.4355 58.6173 92.4355 58.6173C93.9975 63.1039 94.9402 77.1326 94.9402 77.1326L94.687 84.2986C96.1363 84.7915 97.248 83.9827 97.248 83.9827C100.161 73.4296 98.8943 48.0262 98.8943 48.0262Z" fill="#FFC600"/>
<path d="M97.2481 83.9827C98.2471 80.3681 98.7537 74.9967 98.9929 69.5116C97.2058 69.5748 95.5876 69.183 94.1523 68.5764C94.6448 73.0504 94.9263 77.1452 94.9263 77.1452L94.673 84.3113C96.1223 84.7915 97.2481 83.9827 97.2481 83.9827Z" fill="#DDAC00"/>
<path d="M47.6318 81.9352C47.9133 82.0995 48.0681 82.188 48.1666 82.2512C47.9696 82.1248 47.6318 81.9352 47.6318 81.9352Z" fill="#DDAC00"/>
<path d="M48.1665 82.2512C48.3213 82.3397 48.3776 82.365 48.1665 82.2512V82.2512Z" fill="#DDAC00"/>
<path d="M44.9724 65.9602C45.0006 68.1087 45.0006 69.5748 45.0006 69.5748C44.888 71.3695 47.6319 81.9479 47.6319 81.9479C51.3749 77.259 50.2633 69.183 50.2633 69.183C50.404 68.1467 50.5306 67.1103 50.6291 66.0866C48.5184 66.63 46.5203 66.3899 44.9724 65.9602Z" fill="#DDAC00"/>
<path d="M65.1087 8.02536C65.1087 8.02536 73.7346 14.6226 81.685 13.7506C81.685 13.7506 87.1306 -2.41403 65.1087 0.315885C65.1087 0.315885 61.6612 1.18794 60.6059 2.80566C60.6059 2.80566 51.1076 4.80254 55.3994 19.0967L58.0026 21.6875H60.6059V16.7333C60.6059 16.7333 65.348 13.3082 65.1087 8.02536Z" fill="#383264"/>
<path d="M59.283 19.8803C59.283 19.8803 57.5804 16.6702 54.9912 18.0857C54.9912 18.0857 52.8383 18.5912 55.5541 23.5708C55.5541 23.5708 58.0448 27.6277 59.8459 24.3796C59.8459 24.3796 60.2962 21.1695 59.283 19.8803Z" fill="#FF8C63"/>
</g>
</svg>
