<svg width="273" height="297" viewBox="0 0 273 297" fill="none" xmlns="http://www.w3.org/2000/svg">
<g clip-path="url(#clip0)">
<path d="M192.868 38.632H243.31C243.31 38.632 238.853 31.4702 225.865 32.5126C213.467 33.5077 212.83 28.9859 206.532 28.4308C200.226 27.8757 194.97 32.1403 192.868 38.632Z" fill="#E0E0E0"/>
<path d="M61.0213 156.295C61.0213 156.295 55.9656 158.705 63.3228 168.019C70.68 177.334 75.4672 181.801 75.4672 181.801C75.4672 181.801 76.8558 184.001 74.6924 184.631C72.5289 185.26 67.5346 185.166 66.9209 187.684C66.2841 190.29 68.6931 192.388 73.1657 193.938C77.6307 195.489 87.2818 199.205 88.1487 199.543C89.0002 199.875 89.9592 200.863 88.5706 201.5C87.1743 202.136 76.3495 204.485 77.9145 208.953C79.4872 213.42 92.7364 215.938 94.1787 216.236C95.621 216.534 96.0276 217.008 96.0199 217.685C96.0122 218.362 92.2837 218.849 89.2381 219.628C86.1924 220.406 82.8091 221.78 83.9599 224.292C85.1106 226.803 93.4422 231.359 111.831 230.722L120.332 229.937L123.953 223.066C130.689 207.951 128.548 199.51 126.239 197.722C123.93 195.935 121.344 198.305 119.511 200.586C117.677 202.867 115.928 205.812 115.199 205.595C114.471 205.378 114.102 204.884 114.256 203.585C114.409 202.285 116.074 190.412 111.808 187.636C107.543 184.861 101.467 193.113 100.324 194.06C99.1807 195.015 98.4442 193.891 98.3675 193.065C98.2907 192.226 97.4852 182.966 97.2934 178.735C97.1016 174.504 95.6516 171.803 92.652 171.478C89.7597 171.16 88.2177 175.35 86.8291 176.948C85.4405 178.538 83.5456 176.657 83.5456 176.657C83.5456 176.657 80.3311 171.194 72.7898 162.001C65.2408 152.809 60.9139 156.329 60.9139 156.329" fill="#EBEBEB"/>
<path d="M121.053 231.65C115.537 224.881 105.97 212.703 97.6924 202.278C89.4146 191.86 81.9192 182.438 76.4416 175.641C73.7028 172.25 71.4856 169.508 69.9513 167.599C69.1918 166.659 68.6011 165.921 68.1868 165.413C67.995 165.169 67.8415 164.98 67.7341 164.838C67.6344 164.709 67.5884 164.635 67.5884 164.635C67.5884 164.635 67.6498 164.695 67.7572 164.817C67.8722 164.953 68.0257 165.135 68.2328 165.379C68.6548 165.88 69.2608 166.611 70.0357 167.539C71.6007 169.42 73.8409 172.148 76.595 175.54C82.111 182.309 89.6371 191.718 97.9072 202.136C106.185 212.554 115.729 224.745 121.199 231.542" fill="#E0E0E0"/>
<path d="M73.9099 188.07C73.9175 188.056 74.1324 188.083 74.5236 188.144C74.9149 188.205 75.4749 188.307 76.173 188.442C77.5616 188.706 79.4642 189.119 81.5586 189.606C83.6223 190.094 85.4866 190.534 86.9135 190.872C87.558 191.021 88.1027 191.143 88.5399 191.244C88.9235 191.332 89.1383 191.387 89.1307 191.4C89.1307 191.414 88.9082 191.393 88.5169 191.332C88.1257 191.271 87.5656 191.17 86.8675 191.028C85.4789 190.75 83.584 190.317 81.4896 189.83C79.4259 189.356 77.554 188.929 76.127 188.598C75.4826 188.449 74.9379 188.327 74.5006 188.232C74.117 188.137 73.9022 188.083 73.9099 188.07Z" fill="#E0E0E0"/>
<path d="M89.6292 190.852C89.5602 190.838 90.3503 187.332 91.3937 183.026C92.4371 178.714 93.3423 175.235 93.419 175.249C93.4881 175.262 92.7056 178.769 91.6545 183.074C90.6112 187.386 89.7059 190.865 89.6292 190.852Z" fill="#E0E0E0"/>
<path d="M101.521 207.355C101.505 207.348 101.605 207.166 101.789 206.854C102.004 206.495 102.28 206.049 102.602 205.521C103.285 204.397 104.229 202.84 105.188 201.087C106.154 199.334 106.968 197.722 107.551 196.551C107.827 196.003 108.057 195.536 108.241 195.164C108.402 194.839 108.502 194.656 108.525 194.663C108.54 194.67 108.479 194.859 108.341 195.198C108.203 195.536 108.003 196.023 107.727 196.612C107.19 197.804 106.4 199.428 105.433 201.188C104.467 202.948 103.5 204.498 102.771 205.602C102.403 206.157 102.104 206.597 101.881 206.902C101.666 207.199 101.544 207.369 101.521 207.355Z" fill="#E0E0E0"/>
<path d="M86.668 207.599C86.668 207.585 86.8751 207.565 87.251 207.538C87.6806 207.518 88.21 207.491 88.8314 207.457C90.1663 207.396 92.0152 207.335 94.0559 207.281C96.0966 207.227 97.9455 207.186 99.288 207.172C99.9094 207.172 100.446 207.166 100.876 207.166C101.252 207.172 101.459 207.179 101.459 207.193C101.459 207.206 101.252 207.233 100.876 207.254C100.446 207.274 99.9171 207.301 99.2957 207.335C97.9608 207.396 96.1119 207.457 94.0635 207.511C92.0229 207.565 90.174 207.606 88.8314 207.619C88.21 207.619 87.673 207.626 87.2434 207.626C86.8828 207.626 86.668 207.612 86.668 207.599Z" fill="#E0E0E0"/>
<path d="M95.0686 223.344C95.0686 223.33 95.3294 223.303 95.8128 223.27C96.3421 223.242 97.0249 223.202 97.8381 223.161C99.5489 223.08 101.919 222.978 104.536 222.884C107.152 222.789 109.522 222.714 111.241 222.674C112.062 222.66 112.744 222.647 113.274 222.64C113.757 222.64 114.018 222.64 114.018 222.66C114.018 222.674 113.757 222.701 113.274 222.735C112.744 222.762 112.062 222.802 111.248 222.843C109.538 222.924 107.167 223.026 104.551 223.121C101.935 223.215 99.5643 223.29 97.8535 223.33C97.0326 223.344 96.3498 223.358 95.8204 223.364C95.3371 223.364 95.0686 223.364 95.0686 223.344Z" fill="#E0E0E0"/>
<path d="M113.565 222.566C113.55 222.559 113.665 222.329 113.888 221.922C114.133 221.476 114.463 220.9 114.847 220.203C115.66 218.748 116.772 216.737 117.923 214.483C119.081 212.229 120.071 210.171 120.777 208.668C121.114 207.951 121.398 207.355 121.613 206.895C121.812 206.475 121.928 206.245 121.951 206.252C121.966 206.259 121.882 206.495 121.713 206.929C121.544 207.355 121.283 207.971 120.953 208.729C120.293 210.246 119.327 212.324 118.168 214.578C117.01 216.832 115.875 218.842 115.015 220.278C114.586 220.995 114.233 221.57 113.98 221.97C113.726 222.362 113.581 222.572 113.565 222.566Z" fill="#E0E0E0"/>
<path d="M184.905 122.665C175.768 113.628 176.65 100.591 180.103 89.4216C180.678 87.56 180.977 85.5293 182.435 84.0874C183.892 82.6523 186.554 82.016 188.25 83.2074C189.654 84.1957 189.907 85.9625 190.436 87.4923C191.135 89.5231 192.492 91.3711 194.303 92.7452C195.492 93.6523 197.065 94.3766 198.584 94.0111C200.663 93.5034 201.476 91.3034 201.967 89.4351C202.88 85.9489 203.785 82.456 204.698 78.9699C205.189 77.1016 205.696 75.1859 206.831 73.5545C207.966 71.9163 209.861 70.576 212.009 70.4948C214.158 70.4203 216.375 71.9637 216.306 73.8794C216.275 74.6782 215.891 75.4296 215.738 76.2216C215.592 77.0068 215.769 77.9545 216.543 78.3471C217.334 78.7397 218.323 78.3877 219.098 77.9748C221.791 76.5465 223.924 74.4209 225.964 72.2954C227.997 70.1699 230.007 67.9766 232.547 66.3317C235.086 64.6868 238.262 63.6308 241.339 64.1114C244.415 64.592 247.2 66.9206 247.261 69.7096C247.323 72.5053 244.86 74.8136 242.397 76.5533C238.738 79.1323 234.657 81.2308 230.33 82.7742C229.547 83.0517 228.703 83.3563 228.266 83.9926C227.468 85.1434 228.481 86.6597 229.762 87.3637C231.22 88.1557 232.969 88.3723 234.572 88.8868C236.176 89.4012 237.794 90.4234 238.047 91.9262C238.4 94.0179 236.053 95.6425 233.92 96.5834C229.647 98.4652 225.013 99.6905 220.295 100.185C218.599 100.361 216.843 100.462 215.331 101.166C213.812 101.87 212.608 103.393 213.014 104.869C213.421 106.345 215.255 107.177 216.958 107.245C218.661 107.319 220.333 106.846 222.029 106.649C225.197 106.29 228.91 107.252 230.184 109.858C231.02 111.57 230.583 113.628 229.493 115.239C228.404 116.85 226.747 118.082 225.044 119.186C219.083 123.038 212.063 125.678 204.76 126.334C197.441 126.984 191.035 126.233 184.905 122.665Z" fill="#F5F5F5"/>
<path d="M186.754 123.755C188.411 119.389 186.677 121.582 190.091 116.302C193.497 111.015 197.771 105.492 202.466 99.8462C203.647 98.4382 204.813 97.0505 205.964 95.6764C207.115 94.309 208.258 92.9551 209.462 91.6961C211.871 89.1576 214.403 86.8831 216.881 84.7847C219.359 82.6862 221.799 80.7773 224.092 79.0037C226.394 77.237 228.573 75.6259 230.629 74.2314C234.733 71.429 238.347 69.52 240.886 68.2948C242.152 67.6788 243.157 67.232 243.84 66.9342C244.169 66.792 244.423 66.6837 244.622 66.6025C244.799 66.528 244.891 66.4942 244.891 66.501C244.891 66.5077 244.806 66.5551 244.637 66.6364C244.446 66.7244 244.193 66.8462 243.878 67.0019C243.211 67.32 242.221 67.7871 240.963 68.4167C238.454 69.6757 234.879 71.6117 230.805 74.4277C228.765 75.829 226.601 77.4468 224.315 79.2271C222.029 81.0074 219.604 82.9231 217.134 85.0216C214.672 87.12 212.155 89.3945 209.762 91.9194C208.565 93.1785 207.429 94.5188 206.279 95.8862C205.128 97.2536 203.969 98.6481 202.788 100.049C198.093 105.688 193.82 111.191 190.413 116.458C186.992 121.718 188.71 119.491 187.022 123.83" fill="#E0E0E0"/>
<path d="M209.577 91.7028C209.547 91.7028 209.554 91.405 209.585 90.8634C209.616 90.3219 209.685 89.5434 209.785 88.5822C209.984 86.6597 210.36 84.013 210.797 81.0954C211.227 78.1779 211.564 75.5311 211.733 73.6087C211.818 72.6474 211.879 71.869 211.917 71.3342C211.956 70.7927 211.986 70.4948 212.017 70.4948C212.048 70.4948 212.063 70.7927 212.071 71.3342C212.086 71.8757 212.063 72.6542 212.017 73.6222C211.925 75.5514 211.633 78.2117 211.196 81.136C210.767 84.013 210.368 86.6191 210.068 88.6093C209.938 89.5096 209.831 90.2677 209.746 90.877C209.662 91.4117 209.608 91.7028 209.577 91.7028Z" fill="#E0E0E0"/>
<path d="M238.017 92.9009C238.009 92.928 237.61 92.8806 236.897 92.7859C236.183 92.6979 235.155 92.5557 233.874 92.4271C231.319 92.1428 227.767 91.8585 223.832 91.7028C219.896 91.5471 216.336 91.5403 213.751 91.6012C212.462 91.6215 211.419 91.6689 210.698 91.6892C209.976 91.7163 209.577 91.7231 209.57 91.696C209.57 91.6689 209.961 91.6215 210.682 91.5471C211.403 91.4794 212.447 91.3982 213.736 91.344C216.321 91.2154 219.896 91.1815 223.839 91.3372C227.783 91.4997 231.342 91.8246 233.897 92.1699C235.178 92.3323 236.206 92.5083 236.912 92.6437C237.633 92.7926 238.024 92.8806 238.017 92.9009Z" fill="#E0E0E0"/>
<path d="M190.552 115.923C190.536 115.923 190.498 115.815 190.444 115.591C190.383 115.327 190.306 115.009 190.214 114.623C190.015 113.784 189.769 112.559 189.477 111.049C188.902 108.023 188.258 103.82 187.613 99.1693C186.969 94.5188 186.37 90.3151 185.872 87.2825C185.626 85.8068 185.419 84.5951 185.266 83.688C185.204 83.2954 185.151 82.9773 185.105 82.7065C185.074 82.4831 185.059 82.3613 185.074 82.3613C185.089 82.3613 185.128 82.4763 185.181 82.693C185.243 82.957 185.319 83.2751 185.411 83.661C185.611 84.5003 185.856 85.7256 186.148 87.2351C186.723 90.261 187.368 94.4647 188.012 99.1151C188.657 103.766 189.255 107.963 189.754 111.002C190.007 112.478 190.206 113.689 190.36 114.596C190.421 114.989 190.475 115.314 190.521 115.578C190.552 115.808 190.559 115.923 190.552 115.923Z" fill="#E0E0E0"/>
<path d="M229.501 113.195C229.501 113.209 229.363 113.229 229.11 113.249C228.803 113.276 228.427 113.303 227.974 113.337C226.931 113.412 225.519 113.513 223.801 113.635C220.28 113.886 215.416 114.285 210.045 114.732C204.675 115.179 199.804 115.537 196.275 115.727C194.51 115.822 193.083 115.883 192.093 115.91C191.641 115.916 191.257 115.93 190.958 115.937C190.697 115.937 190.559 115.93 190.559 115.923C190.559 115.91 190.697 115.889 190.95 115.869C191.257 115.842 191.633 115.815 192.086 115.781C193.129 115.706 194.541 115.605 196.259 115.483C199.781 115.233 204.644 114.833 210.015 114.387C215.385 113.94 220.257 113.581 223.786 113.391C225.55 113.297 226.977 113.236 227.967 113.209C228.427 113.202 228.795 113.188 229.102 113.182C229.363 113.182 229.501 113.188 229.501 113.195Z" fill="#E0E0E0"/>
<path d="M259.713 182.092C259.72 182.092 259.674 182.201 259.582 182.411C259.475 182.634 259.337 182.932 259.16 183.311C258.769 184.123 258.217 185.267 257.526 186.716C256.084 189.66 254.051 193.817 251.611 198.785L251.573 198.86L251.481 198.873C246.026 199.665 239.666 200.593 232.9 201.581C230.782 201.886 228.696 202.19 226.67 202.481L226.386 202.522L226.456 202.278C227.967 197.005 229.363 192.151 230.552 188.029L230.637 188.185C226.103 186.398 222.359 184.922 219.72 183.879C218.439 183.365 217.426 182.959 216.705 182.668C216.375 182.532 216.122 182.424 215.922 182.343C215.746 182.268 215.654 182.228 215.661 182.221C215.669 182.214 215.761 182.241 215.945 182.309C216.152 182.383 216.413 182.478 216.751 182.6C217.48 182.871 218.5 183.257 219.796 183.744C222.451 184.759 226.21 186.201 230.767 187.941L230.89 187.988L230.859 188.103C229.693 192.233 228.32 197.093 226.831 202.373L226.617 202.17C228.642 201.879 230.721 201.574 232.846 201.27C239.613 200.302 245.98 199.388 251.435 198.603L251.312 198.69C253.798 193.742 255.877 189.606 257.35 186.668C258.079 185.233 258.662 184.103 259.076 183.297C259.268 182.925 259.429 182.634 259.544 182.411C259.644 182.187 259.705 182.086 259.713 182.092Z" fill="#E0E0E0"/>
<path d="M228.857 200.532L228.35 201.716L229.164 202.752L227.737 202.691L226.87 203.693L226.494 202.474L225.144 202.062L226.34 201.371L226.371 200.105L227.491 200.897L228.857 200.532Z" fill="#E0E0E0"/>
<path d="M216.099 181.409L215.845 181.998L216.252 182.512L215.546 182.485L215.109 182.979L214.925 182.377L214.257 182.167L214.848 181.822L214.863 181.199L215.423 181.591L216.099 181.409Z" fill="#E0E0E0"/>
<path d="M252.133 198.041L251.88 198.63L252.286 199.144L251.58 199.11L251.143 199.611L250.959 199.009L250.292 198.799L250.882 198.454L250.898 197.824L251.458 198.217L252.133 198.041Z" fill="#E0E0E0"/>
<path d="M231.342 187.481L231.089 188.07L231.496 188.584L230.782 188.557L230.353 189.051L230.169 188.449L229.493 188.239L230.092 187.894L230.107 187.271L230.66 187.663L231.342 187.481Z" fill="#E0E0E0"/>
<path d="M260.58 181.503L260.326 182.092L260.733 182.607L260.02 182.573L259.59 183.074L259.398 182.471L258.731 182.262L259.329 181.916L259.344 181.287L259.897 181.679L260.58 181.503Z" fill="#E0E0E0"/>
<path d="M28.0481 230.763H68.2098C68.2098 230.763 64.6578 225.063 54.3239 225.889C44.4503 226.681 43.9517 223.087 38.9267 222.64C33.9093 222.2 29.7205 225.598 28.0481 230.763Z" fill="#E0E0E0"/>
<path d="M36.0269 91.2425H76.1886C76.1886 91.2425 72.6365 85.5428 62.3027 86.3687C52.4291 87.1606 51.9304 83.5662 46.9054 83.1194C41.8804 82.6727 37.6993 86.0708 36.0269 91.2425Z" fill="#F5F5F5"/>
<path d="M240.004 115.882H273C273 115.882 270.085 111.198 261.585 111.882C253.476 112.532 253.061 109.574 248.934 109.215C244.814 108.849 241.377 111.638 240.004 115.882Z" fill="#F5F5F5"/>
<path d="M174.111 173.353C175.753 162.441 167.053 153.438 156.19 148.03C145.326 142.621 132.722 140.807 120.723 137.801C109.407 134.965 98.1526 130.822 89.7674 123.538C81.3821 116.255 76.3571 105.309 79.3721 95.2701C80.1316 92.752 81.4819 90.2203 83.9292 88.7649C86.3841 87.3095 90.128 87.3501 91.9538 89.3944C95.8511 93.7538 88.2561 101.559 93.0126 105.194C94.1019 106.026 95.6056 106.338 96.7334 107.13C99.7407 109.242 98.7664 113.358 99.1883 116.729C100.025 123.396 107.113 128.026 114.072 130.727C123.393 134.342 133.489 136.048 143.378 138.194C153.267 140.34 163.232 143.041 171.472 148.321C179.711 153.601 186.854 161.866 186.8 170.849C186.785 173.36 186.424 176.447 184.637 178.403C182.849 180.359 180.578 180.766 178 179.696C175.423 178.626 173.635 176.975 174.111 173.353Z" fill="#E8505B"/>
<g opacity="0.8">
<path opacity="0.8" d="M174.111 173.353C175.753 162.441 167.053 153.438 156.19 148.03C145.326 142.621 132.722 140.807 120.723 137.801C109.407 134.965 98.1526 130.822 89.7674 123.538C81.3821 116.255 76.3571 105.309 79.3721 95.2701C80.1316 92.752 81.4819 90.2203 83.9292 88.7649C86.3841 87.3095 90.128 87.3501 91.9538 89.3944C95.8511 93.7538 88.2561 101.559 93.0126 105.194C94.1019 106.026 95.6056 106.338 96.7334 107.13C99.7407 109.242 98.7664 113.358 99.1883 116.729C100.025 123.396 107.113 128.026 114.072 130.727C123.393 134.342 133.489 136.048 143.378 138.194C153.267 140.34 163.232 143.041 171.472 148.321C179.711 153.601 186.854 161.866 186.8 170.849C186.785 173.36 186.424 176.447 184.637 178.403C182.849 180.359 180.578 180.766 178 179.696C175.423 178.626 173.635 176.975 174.111 173.353Z" fill="white"/>
</g>
<path d="M121.559 86.6259C121.168 82.5846 124.582 79.0646 128.464 77.176C132.346 75.2874 136.788 74.5225 140.792 72.8505C150.727 68.6942 157.041 58.9194 157.509 48.8874C157.977 38.8554 153.052 28.8369 145.342 21.4652C142.212 18.4732 138.353 15.3391 138.307 11.2505C138.261 6.98586 142.94 3.62832 147.62 3.68247C152.3 3.73662 156.612 6.49847 159.412 9.97785C162.212 13.4572 163.762 17.6 165.273 21.6615C164.199 19.9625 166.408 17.8572 168.533 18.0332C170.659 18.216 172.339 19.7797 173.651 21.3366C179.289 28.0314 182.074 36.6351 181.299 44.9206C180.524 53.2062 176.182 61.0923 169.408 66.5483C161.836 72.6339 151.824 75.4905 142.12 78.1914C135.361 80.0732 128.61 81.9551 121.851 83.8369" fill="#E8505B"/>
<g opacity="0.8">
<path opacity="0.8" d="M121.559 86.6259C121.168 82.5846 124.582 79.0646 128.464 77.176C132.346 75.2874 136.788 74.5225 140.792 72.8505C150.727 68.6942 157.041 58.9194 157.509 48.8874C157.977 38.8554 153.052 28.8369 145.342 21.4652C142.212 18.4732 138.353 15.3391 138.307 11.2505C138.261 6.98586 142.94 3.62832 147.62 3.68247C152.3 3.73662 156.612 6.49847 159.412 9.97785C162.212 13.4572 163.762 17.6 165.273 21.6615C164.199 19.9625 166.408 17.8572 168.533 18.0332C170.659 18.216 172.339 19.7797 173.651 21.3366C179.289 28.0314 182.074 36.6351 181.299 44.9206C180.524 53.2062 176.182 61.0923 169.408 66.5483C161.836 72.6339 151.824 75.4905 142.12 78.1914C135.361 80.0732 128.61 81.9551 121.851 83.8369" fill="white"/>
</g>
<path d="M115.92 1.70585C113.91 2.45047 112.806 4.70462 113.565 6.51201C114.325 8.31939 116.826 9.38893 118.905 8.80001C120.984 8.21108 122.303 6.0517 121.728 4.19016C121.152 2.32862 118.767 1.07632 116.634 1.50278" fill="#E8505B"/>
<g opacity="0.8">
<path opacity="0.8" d="M115.92 1.70585C113.91 2.45047 112.806 4.70462 113.565 6.51201C114.325 8.31939 116.826 9.38893 118.905 8.80001C120.984 8.21108 122.303 6.0517 121.728 4.19016C121.152 2.32862 118.767 1.07632 116.634 1.50278" fill="white"/>
</g>
<path d="M140.907 262.531C138.422 257.989 140.585 252.323 144.544 248.681C148.502 245.039 153.903 242.961 159.143 240.93C170.689 236.442 182.918 231.095 188.794 221.239C190.774 217.915 191.902 214.26 193.014 210.631C195.17 203.618 197.187 195.651 192.853 189.471C191.602 187.69 189.73 186.113 187.398 185.748C184.744 185.335 182.013 186.621 180.371 188.516C178.737 190.405 178.031 192.808 177.693 195.164C177.049 199.658 177.586 204.228 177.049 208.729C176.512 213.231 174.648 217.942 170.436 220.535C165.327 223.682 158.031 222.972 153.059 226.295C149.047 228.976 147.52 233.633 144.39 237.106C141.751 240.023 138.069 242.02 134.685 244.261C131.31 246.508 128.042 249.243 126.891 252.838C125.702 256.567 127.19 260.859 130.55 263.357C133.911 265.855 138.951 266.43 142.917 264.765" fill="#E8505B"/>
<g opacity="0.8">
<path opacity="0.8" d="M140.907 262.531C138.422 257.989 140.585 252.323 144.544 248.681C148.502 245.039 153.903 242.961 159.143 240.93C170.689 236.442 182.918 231.095 188.794 221.239C190.774 217.915 191.902 214.26 193.014 210.631C195.17 203.618 197.187 195.651 192.853 189.471C191.602 187.69 189.73 186.113 187.398 185.748C184.744 185.335 182.013 186.621 180.371 188.516C178.737 190.405 178.031 192.808 177.693 195.164C177.049 199.658 177.586 204.228 177.049 208.729C176.512 213.231 174.648 217.942 170.436 220.535C165.327 223.682 158.031 222.972 153.059 226.295C149.047 228.976 147.52 233.633 144.39 237.106C141.751 240.023 138.069 242.02 134.685 244.261C131.31 246.508 128.042 249.243 126.891 252.838C125.702 256.567 127.19 260.859 130.55 263.357C133.911 265.855 138.951 266.43 142.917 264.765" fill="white"/>
</g>
<path d="M64.09 33.0678C60.024 30.4075 57.5383 25.9534 57.6304 21.4857C57.7225 17.018 60.3846 12.6518 64.5503 10.1134C66.9056 8.68505 69.7058 7.80505 71.8002 6.08566C73.6644 4.55582 74.8765 2.43705 76.9633 1.15089C79.5563 -0.446646 83.3155 -0.378954 85.8318 1.32012C88.3482 3.01243 89.4146 6.19397 88.3482 8.8272C87.3892 11.2032 84.9726 12.9361 83.9599 15.2986C82.8705 17.837 83.5763 20.6869 83.1697 23.3743C82.6711 26.6844 80.3926 29.7509 77.1551 31.4703C73.9176 33.1897 69.7825 33.5349 66.2305 32.3706" fill="#E8505B"/>
<g opacity="0.8">
<path opacity="0.8" d="M64.09 33.0678C60.024 30.4075 57.5383 25.9534 57.6304 21.4857C57.7225 17.018 60.3846 12.6518 64.5503 10.1134C66.9056 8.68505 69.7058 7.80505 71.8002 6.08566C73.6644 4.55582 74.8765 2.43705 76.9633 1.15089C79.5563 -0.446646 83.3155 -0.378954 85.8318 1.32012C88.3482 3.01243 89.4146 6.19397 88.3482 8.8272C87.3892 11.2032 84.9726 12.9361 83.9599 15.2986C82.8705 17.837 83.5763 20.6869 83.1697 23.3743C82.6711 26.6844 80.3926 29.7509 77.1551 31.4703C73.9176 33.1897 69.7825 33.5349 66.2305 32.3706" fill="white"/>
</g>
<path d="M69.6597 39.3698H68.5396C66.2457 39.3698 64.3892 37.7317 64.3892 35.7077V18.5544H73.8178V35.7077C73.8178 37.7249 71.9535 39.3698 69.6597 39.3698Z" fill="#E8505B"/>
<path d="M64.3892 18.5545L69.0996 10.9255L73.8178 18.5545H64.3892Z" fill="#FFBE9D"/>
<path d="M67.2354 13.9446C67.2354 13.9446 68.67 15.8468 70.9715 13.9446L69.1073 10.9255L67.2354 13.9446Z" fill="#E8505B"/>
<path d="M73.9481 34.8683C73.9481 34.9631 71.8 35.0376 69.1533 35.0376C66.5065 35.0376 64.3584 34.9631 64.3584 34.8683C64.3584 34.7736 66.5065 34.6991 69.1533 34.6991C71.8 34.6991 73.9481 34.7736 73.9481 34.8683Z" fill="#263238"/>
<path d="M73.8485 33.5957C73.8485 33.6905 71.7464 33.7649 69.1534 33.7649C66.5603 33.7649 64.4583 33.6905 64.4583 33.5957C64.4583 33.5009 66.5603 33.4265 69.1534 33.4265C71.7464 33.4265 73.8485 33.5009 73.8485 33.5957Z" fill="#263238"/>
<path d="M67.1586 18.6763C67.266 18.6763 67.3504 22 67.3504 26.0954C67.3504 30.1908 67.266 33.5145 67.1586 33.5145C67.0512 33.5145 66.9668 30.1976 66.9668 26.0954C66.9668 22 67.0512 18.6763 67.1586 18.6763Z" fill="#FAFAFA"/>
<path d="M70.9716 18.6763C71.079 18.6763 71.1634 22 71.1634 26.0954C71.1634 30.1908 71.079 33.5145 70.9716 33.5145C70.8642 33.5145 70.7798 30.1976 70.7798 26.0954C70.7798 22 70.8642 18.6763 70.9716 18.6763Z" fill="#FAFAFA"/>
<path d="M146.301 252.973L189.14 254.591L190.176 256.791L162.097 297L111.417 295.694L146.301 252.973Z" fill="#263238"/>
<path d="M109.491 291.774L160.478 294.346L187.107 257.881L168.411 259.221L121.084 273.93L109.491 291.774Z" fill="#E0E0E0"/>
<path d="M102.333 289.073L149.154 289.723C147.205 284.436 151.793 276.997 158.091 274.492C162.265 272.834 170.113 270.681 174.164 268.847C181.859 265.361 188.817 258.767 188.211 253.102L168.978 252.56L144.436 251.721C142.38 257.095 137.991 260.609 131.317 262.727C125.348 264.623 118.551 264.616 112.721 266.769C103.346 270.248 98.8423 281.471 102.333 289.073Z" fill="#EBEBEB"/>
<path d="M102.334 289.073C102.334 289.073 102.288 288.985 102.219 288.809C102.142 288.62 102.035 288.356 101.896 288.01C101.735 287.665 101.636 287.205 101.498 286.67C101.329 286.135 101.275 285.506 101.175 284.788C101.06 283.36 101.076 281.573 101.544 279.535C102.019 277.511 102.924 275.223 104.543 272.976C104.965 272.428 105.364 271.839 105.893 271.317C106.147 271.047 106.384 270.762 106.661 270.498C106.945 270.241 107.236 269.984 107.528 269.727C107.811 269.456 108.134 269.219 108.464 268.982C108.793 268.745 109.116 268.495 109.469 268.271C110.205 267.865 110.911 267.391 111.747 267.073C114.992 265.631 118.866 265.022 122.902 264.379C124.927 264.054 127.006 263.716 129.101 263.208C131.187 262.687 133.282 261.989 135.269 261.015C136.266 260.534 137.233 259.979 138.153 259.349C139.074 258.727 139.933 258.016 140.708 257.217C142.281 255.647 143.47 253.738 144.268 251.68L144.314 251.572L144.444 251.578C150.965 251.795 157.801 252.025 164.897 252.269C171.986 252.513 179.328 252.682 186.846 252.905C187.306 252.919 187.767 252.932 188.219 252.946L188.388 252.953L188.403 253.101C188.534 254.408 188.265 255.714 187.782 256.919C187.567 257.535 187.23 258.104 186.923 258.679C186.562 259.228 186.225 259.789 185.803 260.304C184.207 262.409 182.159 264.169 180.003 265.713C177.824 267.249 175.461 268.522 173.006 269.53C170.536 270.512 168.035 271.311 165.588 272.109C163.14 272.908 160.716 273.666 158.414 274.546C157.287 275.007 156.205 275.541 155.261 276.232C154.763 276.543 154.348 276.943 153.896 277.295C153.497 277.694 153.052 278.053 152.691 278.479C151.18 280.117 150.045 281.972 149.415 283.908C148.756 285.831 148.679 287.868 149.3 289.689L149.362 289.872H149.147C134.962 289.649 123.262 289.466 115.1 289.337C111.026 289.263 107.842 289.209 105.656 289.168C104.574 289.141 103.753 289.127 103.178 289.114C102.618 289.093 102.334 289.073 102.334 289.073C102.334 289.073 102.625 289.066 103.185 289.066C103.753 289.066 104.582 289.073 105.663 289.08C107.85 289.1 111.034 289.134 115.107 289.175C123.278 289.276 134.977 289.418 149.162 289.588L149.009 289.77C148.357 287.889 148.433 285.79 149.109 283.827C149.745 281.844 150.896 279.955 152.43 278.29C152.791 277.857 153.244 277.484 153.65 277.078C154.111 276.719 154.533 276.313 155.047 275.995C156.006 275.284 157.118 274.736 158.269 274.262C160.586 273.369 163.01 272.61 165.457 271.805C167.904 271.006 170.398 270.201 172.845 269.233C175.277 268.237 177.609 266.972 179.765 265.455C181.898 263.925 183.915 262.186 185.488 260.114C185.902 259.613 186.232 259.058 186.585 258.524C186.884 257.962 187.207 257.407 187.421 256.811C187.882 255.64 188.143 254.381 188.02 253.135L188.204 253.284C187.759 253.271 187.291 253.257 186.831 253.244C179.312 253.02 171.97 252.851 164.882 252.601C157.793 252.357 150.95 252.12 144.429 251.897L144.605 251.788C143.792 253.88 142.58 255.829 140.969 257.427C140.179 258.233 139.296 258.957 138.36 259.593C137.432 260.236 136.45 260.798 135.43 261.279C133.412 262.26 131.287 262.957 129.185 263.485C127.075 263.993 124.981 264.332 122.955 264.65C118.92 265.286 115.061 265.882 111.862 267.297C111.041 267.608 110.335 268.075 109.614 268.468C109.269 268.691 108.947 268.935 108.625 269.165C108.295 269.395 107.973 269.625 107.696 269.896C107.405 270.153 107.121 270.404 106.837 270.654C106.561 270.911 106.331 271.196 106.078 271.46C105.556 271.981 105.157 272.556 104.735 273.098C103.116 275.311 102.203 277.572 101.712 279.583C101.229 281.6 101.191 283.373 101.29 284.795C101.382 285.506 101.429 286.135 101.582 286.67C101.712 287.205 101.797 287.658 101.95 288.01C102.073 288.356 102.173 288.626 102.242 288.816C102.311 288.978 102.334 289.073 102.334 289.073Z" fill="#263238"/>
<path d="M157.586 252.398C157.555 252.391 157.647 252.134 157.693 251.66C157.732 251.193 157.701 250.489 157.325 249.71C156.964 248.945 156.243 248.092 155.115 247.618C153.995 247.145 152.522 247.043 151.172 247.497C149.814 247.937 148.832 248.911 148.318 249.92C147.789 250.929 147.712 251.971 147.866 252.797C148.019 253.63 148.38 254.259 148.663 254.658C148.955 255.058 149.17 255.247 149.147 255.268C149.131 255.281 148.878 255.119 148.541 254.733C148.203 254.347 147.797 253.711 147.597 252.838C147.405 251.978 147.444 250.868 147.996 249.791C148.518 248.722 149.561 247.659 151.034 247.185C152.484 246.705 154.072 246.82 155.269 247.348C156.489 247.876 157.233 248.81 157.578 249.629C157.939 250.462 157.931 251.199 157.847 251.68C157.801 251.924 157.747 252.106 157.693 252.228C157.632 252.343 157.601 252.404 157.586 252.398Z" fill="#263238"/>
<path d="M164.928 252.398C164.897 252.391 164.989 252.134 165.035 251.66C165.074 251.193 165.043 250.489 164.667 249.71C164.306 248.945 163.585 248.092 162.457 247.618C161.337 247.145 159.864 247.043 158.514 247.497C157.156 247.937 156.174 248.911 155.66 249.92C155.131 250.929 155.054 251.971 155.208 252.797C155.361 253.63 155.722 254.259 156.006 254.658C156.297 255.058 156.512 255.247 156.489 255.268C156.473 255.281 156.22 255.119 155.883 254.733C155.545 254.347 155.139 253.711 154.939 252.838C154.747 251.978 154.786 250.868 155.338 249.791C155.86 248.722 156.903 247.659 158.376 247.185C159.826 246.705 161.414 246.82 162.611 247.348C163.831 247.876 164.575 248.81 164.92 249.629C165.281 250.462 165.273 251.199 165.189 251.68C165.143 251.924 165.089 252.106 165.035 252.228C164.966 252.343 164.935 252.404 164.928 252.398Z" fill="#263238"/>
<path d="M170.497 252.736C170.459 252.729 170.543 252.465 170.559 251.991C170.566 251.518 170.49 250.82 170.068 250.062C169.661 249.311 168.886 248.498 167.72 248.086C166.577 247.666 165.089 247.639 163.777 248.16C162.45 248.668 161.529 249.69 161.084 250.719C160.616 251.754 160.616 252.797 160.816 253.616C161.023 254.442 161.422 255.051 161.736 255.43C162.051 255.816 162.281 255.999 162.258 256.019C162.243 256.033 161.982 255.884 161.621 255.511C161.261 255.139 160.808 254.53 160.555 253.67C160.302 252.817 160.279 251.714 160.754 250.61C161.207 249.514 162.181 248.404 163.616 247.855C165.035 247.3 166.623 247.334 167.851 247.808C169.101 248.275 169.907 249.169 170.306 249.974C170.72 250.786 170.758 251.524 170.705 252.012C170.674 252.255 170.628 252.445 170.582 252.567C170.536 252.675 170.513 252.736 170.497 252.736Z" fill="#263238"/>
<path d="M176.474 253.034C176.435 253.027 176.504 252.763 176.489 252.289C176.474 251.815 176.351 251.125 175.883 250.387C175.43 249.656 174.609 248.877 173.42 248.519C172.254 248.153 170.774 248.201 169.485 248.776C168.188 249.345 167.337 250.414 166.953 251.457C166.546 252.513 166.608 253.555 166.861 254.361C167.114 255.173 167.551 255.762 167.889 256.134C168.226 256.506 168.464 256.676 168.441 256.696C168.434 256.71 168.157 256.574 167.774 256.222C167.39 255.87 166.907 255.281 166.6 254.435C166.301 253.596 166.209 252.492 166.615 251.369C166.999 250.258 167.904 249.101 169.308 248.485C170.697 247.862 172.277 247.828 173.535 248.234C174.817 248.641 175.668 249.5 176.113 250.279C176.573 251.071 176.658 251.809 176.635 252.296C176.619 252.54 176.589 252.729 176.55 252.851C176.512 252.973 176.489 253.041 176.474 253.034Z" fill="#263238"/>
<path d="M182.458 252.912C182.419 252.905 182.481 252.641 182.45 252.167C182.419 251.7 182.274 251.003 181.783 250.279C181.307 249.561 180.463 248.803 179.266 248.471C178.085 248.133 176.604 248.214 175.338 248.823C174.057 249.426 173.244 250.509 172.891 251.565C172.523 252.628 172.615 253.67 172.891 254.469C173.175 255.274 173.627 255.857 173.973 256.215C174.326 256.581 174.563 256.743 174.548 256.764C174.54 256.777 174.264 256.649 173.865 256.303C173.474 255.958 172.968 255.383 172.638 254.543C172.308 253.711 172.185 252.614 172.553 251.477C172.906 250.353 173.773 249.175 175.154 248.526C176.52 247.869 178.108 247.794 179.374 248.174C180.662 248.553 181.545 249.385 182.013 250.157C182.496 250.935 182.611 251.673 182.596 252.161C182.588 252.404 182.565 252.594 182.527 252.722C182.496 252.851 182.473 252.912 182.458 252.912Z" fill="#263238"/>
<path d="M187.506 253.508C187.467 253.501 187.536 253.237 187.529 252.763C187.521 252.289 187.406 251.592 186.946 250.854C186.501 250.123 185.695 249.338 184.514 248.966C183.348 248.586 181.867 248.62 180.57 249.182C179.266 249.737 178.399 250.793 178 251.836C177.586 252.885 177.625 253.927 177.87 254.74C178.116 255.559 178.537 256.148 178.875 256.52C179.205 256.892 179.443 257.068 179.42 257.089C179.412 257.102 179.136 256.967 178.76 256.608C178.384 256.249 177.901 255.653 177.609 254.807C177.318 253.968 177.241 252.865 177.663 251.741C178.062 250.631 178.982 249.487 180.394 248.884C181.79 248.275 183.371 248.255 184.629 248.681C185.902 249.101 186.746 249.967 187.176 250.753C187.629 251.551 187.705 252.289 187.667 252.777C187.652 253.02 187.613 253.21 187.575 253.332C187.544 253.447 187.513 253.508 187.506 253.508Z" fill="#263238"/>
<path d="M209.57 114.84C207.552 114.793 205.419 114.854 203.225 115.09C190.007 116.539 180.156 126.558 180.179 138.309C180.187 141.734 180.601 145.559 181.821 149.377C185.511 160.925 186.646 171.099 186.224 176.054L198.576 181.91C198.576 181.91 204.291 174.66 209.815 171.539C215.339 168.412 233.72 160.058 241.001 151.462C245.696 145.924 246.594 134.559 235.408 124.615C228.573 118.543 219.267 115.077 209.57 114.84Z" fill="#E8505B"/>
<path d="M180.379 188.665L191.533 193.979L184.268 202.122L176.834 199.137L180.379 188.665Z" fill="#455A64"/>
<path d="M180.916 188.99C180.816 188.956 181.921 186.039 183.386 182.465C184.851 178.89 186.117 176.02 186.217 176.054C186.317 176.088 185.212 179.006 183.747 182.58C182.289 186.154 181.015 189.024 180.916 188.99Z" fill="#263238"/>
<path d="M190.827 193.58C190.735 193.532 192.485 190.77 194.732 187.413C196.98 184.055 198.875 181.375 198.967 181.422C199.059 181.47 197.31 184.231 195.062 187.589C192.814 190.946 190.92 193.627 190.827 193.58Z" fill="#263238"/>
<g opacity="0.4">
<path opacity="0.4" d="M213.291 115.145C212.792 115.172 206.654 121.508 203.939 125.799C194.802 140.238 194.395 154.284 191.856 170.666C191.495 173.008 190.176 178.051 190.199 177.936C191.549 178.87 196.09 180.732 196.09 180.732C196.09 180.732 200.371 176.169 202.074 173.874C208.895 164.682 216.29 157.52 222.128 147.82C227.967 138.119 233.582 129.516 228.181 119.619C228.181 119.626 218.83 114.874 213.291 115.145Z" fill="black"/>
</g>
<path d="M241.047 152.917C241.039 152.917 240.986 152.815 240.886 152.606C240.786 152.402 240.663 152.084 240.456 151.692C240.057 150.906 239.397 149.769 238.3 148.49C237.203 147.224 235.669 145.789 233.559 144.591C231.488 143.359 228.81 142.384 225.788 142.052L225.711 142.046L225.665 141.991C224.246 140.306 222.619 138.559 220.678 136.942C218.745 135.33 216.482 133.848 213.874 132.806C211.273 131.783 208.473 131.33 205.833 131.452C203.194 131.567 200.716 132.311 198.798 133.523L198.691 133.591L198.591 133.51C196.297 131.729 193.551 130.809 191.073 130.565C188.58 130.314 186.37 130.714 184.682 131.282C182.987 131.851 181.782 132.582 181.015 133.103C180.632 133.367 180.34 133.584 180.156 133.74C179.964 133.889 179.865 133.963 179.857 133.956C179.849 133.95 179.941 133.862 180.118 133.699C180.294 133.537 180.57 133.306 180.946 133.022C181.706 132.467 182.895 131.709 184.613 131.106C186.317 130.504 188.564 130.071 191.111 130.308C193.643 130.538 196.459 131.458 198.822 133.279L198.607 133.273C200.571 132.02 203.118 131.249 205.826 131.12C208.526 130.985 211.388 131.445 214.042 132.494C216.697 133.55 218.991 135.06 220.947 136.698C222.903 138.336 224.537 140.103 225.949 141.802L225.834 141.741C228.926 142.093 231.634 143.108 233.72 144.374C235.845 145.613 237.38 147.082 238.469 148.375C239.551 149.681 240.188 150.839 240.564 151.644C240.755 152.044 240.855 152.369 240.94 152.578C241.016 152.802 241.055 152.91 241.047 152.917Z" fill="#263238"/>
<path d="M218.085 167.302C218.009 167.322 218.024 166.32 217.019 164.932C216.513 164.262 215.753 163.497 214.648 162.922C213.567 162.333 212.124 161.934 210.559 162.069L210.406 162.082L210.383 161.947C210.137 160.546 209.478 159.057 208.358 157.737C207.245 156.423 205.68 155.252 203.778 154.596C202.213 154.047 200.548 153.851 198.99 153.946C197.425 154.047 195.96 154.44 194.725 155.009L194.61 155.063L194.518 154.975C193.283 153.81 191.687 153.154 190.229 152.924C188.764 152.66 187.429 152.795 186.386 153.032C184.276 153.54 183.378 154.44 183.332 154.366C183.325 154.359 183.378 154.311 183.493 154.217C183.608 154.129 183.77 153.986 184.015 153.831C184.498 153.526 185.258 153.127 186.324 152.849C187.383 152.578 188.756 152.423 190.275 152.673C191.787 152.89 193.459 153.546 194.763 154.765L194.556 154.731C195.83 154.129 197.341 153.716 198.96 153.607C200.571 153.506 202.297 153.702 203.916 154.271C205.895 154.948 207.506 156.166 208.649 157.527C209.8 158.894 210.467 160.438 210.705 161.886L210.529 161.764C212.178 161.636 213.682 162.076 214.787 162.705C215.922 163.321 216.681 164.12 217.18 164.824C217.671 165.535 217.894 166.171 218.001 166.604C218.055 166.821 218.062 166.99 218.078 167.105C218.093 167.241 218.101 167.302 218.085 167.302Z" fill="#263238"/>
<path d="M189.377 196.545C189.347 196.565 189.255 196.409 188.971 196.308C188.687 196.199 188.219 196.186 187.667 196.342C187.383 196.409 187.061 196.497 186.677 196.504C186.293 196.511 185.871 196.348 185.572 196.078C184.982 195.536 184.751 194.744 184.199 194.202C183.923 193.938 183.555 193.796 183.171 193.823C182.787 193.837 182.396 193.952 182.005 194.026C181.621 194.108 181.215 194.162 180.839 194.081C180.463 194.013 180.164 193.85 179.926 193.668C179.45 193.302 179.243 192.869 179.189 192.571C179.136 192.273 179.189 192.104 179.205 192.104C179.235 192.104 179.235 192.266 179.335 192.537C179.427 192.801 179.657 193.174 180.095 193.478C180.317 193.627 180.586 193.756 180.9 193.803C181.207 193.857 181.552 193.81 181.921 193.722C182.289 193.641 182.688 193.512 183.156 193.485C183.624 193.451 184.145 193.641 184.475 193.966C185.127 194.615 185.327 195.394 185.825 195.854C186.071 196.084 186.37 196.213 186.685 196.22C186.999 196.233 187.306 196.159 187.598 196.111C188.181 195.976 188.725 196.023 189.032 196.193C189.347 196.355 189.393 196.545 189.377 196.545Z" fill="#263238"/>
<path d="M190.659 194.967C190.613 195.049 188.173 193.986 185.22 192.598C182.266 191.204 179.903 190.012 179.957 189.931C180.003 189.85 182.442 190.913 185.396 192.3C188.35 193.688 190.705 194.886 190.659 194.967Z" fill="#263238"/>
<path d="M188.442 197.445C188.449 197.472 188.288 197.513 188.02 197.621C187.882 197.675 187.728 197.756 187.513 197.831C187.299 197.912 187.022 197.939 186.746 197.919C186.186 197.885 185.503 197.729 184.905 197.296C184.614 197.086 184.36 196.775 184.207 196.443C184.046 196.125 183.915 195.793 183.67 195.556C183.164 195.076 182.335 195.022 181.652 195.042C180.946 195.062 180.256 195.082 179.711 194.879C179.174 194.683 178.852 194.345 178.729 194.087C178.607 193.823 178.645 193.661 178.668 193.661C178.699 193.654 178.714 193.81 178.86 194.026C179.005 194.243 179.32 194.507 179.803 194.656C180.287 194.805 180.916 194.771 181.637 194.73C182.335 194.697 183.279 194.71 183.954 195.326C184.268 195.638 184.399 196.003 184.552 196.308C184.698 196.619 184.89 196.863 185.143 197.059C185.649 197.452 186.263 197.621 186.777 197.682C187.291 197.763 187.667 197.574 187.974 197.499C188.265 197.425 188.434 197.431 188.442 197.445Z" fill="#263238"/>
<path d="M104.213 134.227L123.508 131.702L114.286 120.174L109.338 120.431C106.009 120.607 103.078 122.422 101.758 125.122C101.06 126.558 100.861 128.148 101.198 129.678L104.213 134.227Z" fill="#E8505B"/>
<path opacity="0.4" d="M104.213 134.227L123.508 131.702L114.286 120.174L109.338 120.431C106.009 120.607 103.078 122.422 101.758 125.122C101.06 126.558 100.861 128.148 101.198 129.678L104.213 134.227Z" fill="black"/>
<path d="M187.076 153.086C187.276 153.574 187.49 154.149 187.713 154.839C187.905 155.435 187.966 156.051 187.92 156.66C187.866 157.405 187.744 158.393 187.483 158.914C187.168 159.558 187.905 160.207 188.526 159.889C189.148 159.564 190.076 157.804 190.014 155.543C189.961 153.276 192.577 155.99 193.551 156.965C194.525 157.94 197.702 160.83 198.277 160.803C199.121 160.762 199.228 159.957 198.231 159.002C197.218 158.034 194.464 155.002 195.07 154.575C195.669 154.156 200.556 159.172 200.556 159.172C200.556 159.172 201.399 160.397 202.121 159.916C203.425 159.057 197.786 154.061 197.234 153.594C196.85 153.269 197.494 152.782 197.886 153.147C198.285 153.526 202.627 158.258 203.962 157.391C204.982 156.728 199.366 153.242 199.083 151.82C198.799 150.399 203.041 154.846 203.985 154.183C204.338 153.932 204.56 153.709 201.714 151.462C200.333 150.372 195.07 147.122 195.07 147.122L179.236 107.116L167.007 113.297L187.076 153.086Z" fill="#FFBE9D"/>
<path d="M92.8209 77.4332L75.1298 58.8043C74.8996 58.1612 74.6234 57.5384 74.2629 56.9495C73.3806 55.4941 71.9153 54.2283 70.0894 53.8763C68.9693 53.6597 67.6805 53.7612 66.8059 53.1113C66.4146 52.8203 66.1461 52.4073 65.7395 52.1366C65.3252 51.8658 64.6425 51.8117 64.3739 52.2043C64.1898 52.4818 64.3049 52.8338 64.4507 53.1317C65.1104 54.5058 66.1768 55.7243 67.5194 56.6314C65.8623 57.0781 63.4917 57.7483 63.4917 57.7483C63.4917 57.7483 59.7479 54.1673 57.8376 54.1809C55.9273 54.1944 59.3873 57.376 59.3873 57.376C59.3873 57.376 56.3186 54.8713 55.3673 55.5821C54.416 56.2861 56.8556 58.1409 56.8556 58.1409C56.0808 57.7753 55.2369 57.3963 54.37 57.5249C53.503 57.6535 52.7589 58.5538 53.2269 59.2104C53.4033 59.4609 53.7102 59.6166 54.0094 59.7587C55.5821 60.5304 57.1471 61.3021 58.7199 62.0738C59.51 62.4597 60.3386 62.859 61.2362 62.8861C63.6221 62.9538 65.4403 61.6473 67.8339 61.7015C67.8339 61.7015 81.1751 86.4836 82.5254 87.763C83.8756 89.0424 113.189 90.7821 113.189 90.7821L130.152 77.8867L92.8209 77.4332Z" fill="#FFBE9D"/>
<path d="M145.963 212.432L164.03 219.377L154.356 239.258C152.262 238.324 152.944 226.404 152.944 226.404L141.161 222.369L145.963 212.432Z" fill="#E8505B"/>
<g opacity="0.6">
<path opacity="0.6" d="M154.962 219.885C155.269 219.546 155.89 219.465 156.282 219.722C156.681 219.98 156.78 220.535 156.473 220.88C156.174 221.225 155.43 221.34 155.07 221.049C154.709 220.758 154.632 220.095 155.016 219.824" fill="white"/>
</g>
<path opacity="0.6" d="M164.038 219.377L162.189 218.741L153.604 238.04C153.604 238.04 153.612 239.089 154.364 239.258L164.038 219.377Z" fill="white"/>
<path d="M152.676 226.681C152.791 226.722 153.075 226.255 153.658 225.91C154.233 225.551 154.832 225.49 154.832 225.382C154.855 225.287 154.126 225.178 153.428 225.605C152.722 226.025 152.569 226.661 152.676 226.681Z" fill="#263238"/>
<path d="M152.638 229.138C152.73 229.199 153.129 228.854 153.75 228.698C154.371 228.529 154.916 228.637 154.954 228.536C155.016 228.448 154.402 228.137 153.627 228.346C152.86 228.543 152.538 229.091 152.638 229.138Z" fill="#263238"/>
<path d="M154.893 231.393C154.962 231.311 154.479 230.973 153.75 230.993C153.029 231.007 152.569 231.379 152.638 231.453C152.699 231.541 153.167 231.372 153.765 231.359C154.356 231.338 154.832 231.487 154.893 231.393Z" fill="#263238"/>
<path d="M150.106 225.497C150.229 225.497 150.29 224.989 150.597 224.461C150.896 223.919 151.311 223.574 151.242 223.486C151.188 223.398 150.582 223.662 150.221 224.292C149.868 224.928 149.999 225.517 150.106 225.497Z" fill="#263238"/>
<path d="M147.666 224.014C147.712 224.034 147.966 223.676 148.142 223.019C148.234 222.694 148.296 222.288 148.288 221.841C148.288 221.618 148.265 221.381 148.219 221.137C148.196 221.022 148.18 220.887 148.096 220.738C148.035 220.589 147.774 220.413 147.536 220.474C147.314 220.508 147.152 220.663 147.076 220.805C146.999 220.948 146.976 221.083 146.953 221.198C146.907 221.442 146.892 221.679 146.892 221.909C146.899 222.362 146.999 222.769 147.129 223.087C147.39 223.73 147.72 224.041 147.759 224.021C147.82 223.994 147.582 223.635 147.413 223.012C147.329 222.701 147.268 222.329 147.275 221.909C147.283 221.699 147.306 221.482 147.352 221.259C147.39 221.022 147.475 220.846 147.613 220.833C147.666 220.826 147.682 220.833 147.728 220.9C147.774 220.968 147.789 221.076 147.812 221.191C147.858 221.415 147.881 221.638 147.897 221.848C147.92 222.268 147.897 222.653 147.843 222.972C147.759 223.608 147.605 223.994 147.666 224.014Z" fill="#263238"/>
<path d="M147.881 223.946C147.912 223.919 147.613 223.574 146.922 223.269C146.577 223.121 146.132 222.992 145.618 222.938C145.365 222.911 145.089 222.911 144.812 222.931C144.536 222.965 144.168 222.992 143.93 223.351C143.823 223.547 143.923 223.77 144.045 223.885C144.168 224.007 144.291 224.068 144.406 224.143C144.651 224.278 144.912 224.373 145.165 224.434C145.672 224.556 146.155 224.529 146.539 224.447C147.313 224.278 147.643 223.926 147.605 223.906C147.567 223.852 147.191 224.109 146.485 224.197C146.14 224.238 145.71 224.231 145.273 224.109C145.058 224.048 144.836 223.96 144.628 223.845C144.406 223.723 144.252 223.567 144.314 223.5C144.36 223.398 144.621 223.303 144.851 223.29C145.104 223.263 145.35 223.263 145.58 223.276C146.048 223.303 146.462 223.398 146.799 223.513C147.482 223.73 147.843 223.994 147.881 223.946Z" fill="#263238"/>
<path d="M132.047 239.746L139.519 253.562L141.859 265.99C142.028 266.884 143.017 267.466 144.022 267.256C144.582 267.141 145.043 266.796 145.257 266.322C146.631 263.323 151.625 252.255 151.011 251.274C150.305 250.137 144.222 236.239 144.222 236.239L132.047 239.746Z" fill="#E8505B"/>
<path opacity="0.6" d="M144.03 267.256L150.543 250.333L150.843 250.922C151.103 251.436 151.149 252.012 150.973 252.546C150.497 253.988 149.093 257.942 145.311 266.302C145.089 266.796 144.605 267.154 144.03 267.256Z" fill="white"/>
<g opacity="0.6">
<path opacity="0.6" d="M144.996 247.118C144.72 247.517 144.866 248.099 145.303 248.356C145.741 248.614 146.416 248.492 146.692 248.099C146.976 247.706 146.83 247.002 146.362 246.793C145.894 246.583 145.112 246.759 144.95 247.206" fill="white"/>
</g>
<path d="M144.536 259.722C144.467 259.796 143.738 259.207 142.595 259.187C141.452 259.14 140.677 259.681 140.616 259.6C140.585 259.573 140.731 259.383 141.076 259.187C141.422 258.991 141.974 258.828 142.611 258.849C143.24 258.869 143.785 259.072 144.114 259.282C144.437 259.498 144.567 259.695 144.536 259.722Z" fill="#263238"/>
<path d="M144.36 262.037C144.314 262.125 143.577 261.875 142.649 261.99C141.721 262.091 141.084 262.504 141.015 262.43C140.931 262.375 141.544 261.78 142.603 261.658C143.654 261.536 144.421 261.969 144.36 262.037Z" fill="#263238"/>
<path d="M145.411 256.493C145.372 256.588 144.237 256.195 142.779 256.269C141.322 256.324 140.24 256.811 140.186 256.716C140.125 256.649 141.199 255.992 142.764 255.931C144.321 255.857 145.472 256.425 145.411 256.493Z" fill="#263238"/>
<path d="M143.539 252.127C143.539 252.228 142.503 252.249 141.345 252.668C140.179 253.068 139.412 253.684 139.335 253.609C139.258 253.555 139.956 252.79 141.207 252.357C142.45 251.91 143.554 252.046 143.539 252.127Z" fill="#263238"/>
<path d="M141.46 248.025C141.452 248.126 140.332 248.011 139.158 248.532C137.969 249.033 137.394 249.886 137.294 249.832C137.256 249.812 137.34 249.568 137.609 249.236C137.877 248.905 138.353 248.505 138.99 248.228C139.626 247.95 140.278 247.862 140.739 247.876C141.199 247.889 141.468 247.984 141.46 248.025Z" fill="#263238"/>
<path d="M138.79 247.74C138.767 247.747 138.637 247.578 138.499 247.219C138.361 246.867 138.222 246.326 138.268 245.649C138.307 245.324 138.315 244.918 138.66 244.559C138.829 244.376 139.181 244.288 139.458 244.396C139.734 244.505 139.91 244.708 140.025 244.924C140.463 245.818 140.033 247.016 138.967 247.591C137.885 248.153 136.573 247.984 135.729 247.402C135.53 247.239 135.338 247.03 135.338 246.745C135.338 246.461 135.614 246.238 135.852 246.183C136.351 246.062 136.773 246.183 137.141 246.251C137.885 246.42 138.43 246.691 138.775 246.908C139.12 247.124 139.281 247.28 139.266 247.294C139.227 247.354 138.514 246.766 137.079 246.481C136.726 246.427 136.312 246.346 135.959 246.447C135.791 246.502 135.675 246.61 135.675 246.752C135.675 246.887 135.798 247.05 135.959 247.172C136.657 247.646 137.862 247.794 138.767 247.307C139.672 246.833 140.041 245.777 139.703 245.053C139.619 244.877 139.481 244.728 139.32 244.667C139.166 244.606 138.997 244.64 138.875 244.748C138.621 244.978 138.568 245.358 138.522 245.669C138.399 246.962 138.867 247.727 138.79 247.74Z" fill="#263238"/>
<path d="M157.233 214.118L136.742 201.946L143.524 143.196L124.114 133.198L106.369 129.57C106.369 129.57 98.9582 143.176 95.6593 151.888C88.6473 170.415 83.7297 177.049 84.8498 190.479C85.2027 194.73 102.994 205.358 114.225 211.268C114.378 212.622 114.578 213.806 114.823 214.788C118.659 230.1 130.374 250.455 130.374 250.455L148.18 243.151L142.434 225.788L148.418 228.868L157.233 214.118ZM113.189 176.237L115.583 166.821C115.077 172.812 114.616 179.053 114.286 185.044C113.136 182.275 112.737 179.195 113.189 176.237Z" fill="#263238"/>
<path d="M130.374 250.448C130.367 250.448 130.32 250.367 130.236 250.198C130.144 250.015 130.021 249.771 129.868 249.46C129.546 248.79 129.085 247.828 128.495 246.596C127.313 244.105 125.618 240.49 123.585 236.002C121.559 231.514 119.143 226.167 116.718 220.142C116.112 218.633 115.522 217.082 114.962 215.478C114.716 214.666 114.402 213.867 114.24 213.007C114.194 212.798 114.141 212.581 114.102 212.371L114.018 211.728C113.964 211.302 113.911 210.868 113.857 210.435C113.65 208.702 113.473 206.942 113.351 205.148C113.289 204.255 113.228 203.348 113.189 202.434C113.151 201.527 113.105 200.599 113.166 199.679C113.466 192.294 114.171 185.301 114.747 178.931C115.353 172.568 115.89 166.834 116.35 162.015C116.795 157.202 117.102 153.303 117.278 150.602C117.371 149.255 117.424 148.206 117.463 147.495C117.486 147.15 117.501 146.886 117.509 146.689C117.524 146.506 117.532 146.412 117.539 146.412C117.547 146.412 117.547 146.506 117.547 146.689C117.547 146.886 117.539 147.156 117.532 147.502C117.524 148.212 117.493 149.262 117.417 150.615C117.286 153.316 117.018 157.222 116.611 162.042C116.174 166.862 115.66 172.595 115.092 178.965C114.532 185.335 113.842 192.341 113.542 199.699C113.481 200.62 113.527 201.527 113.565 202.434C113.604 203.341 113.657 204.241 113.726 205.135C113.857 206.922 114.026 208.682 114.225 210.408C114.279 210.841 114.332 211.268 114.386 211.694L114.471 212.33C114.509 212.54 114.563 212.743 114.609 212.953C114.762 213.779 115.069 214.585 115.314 215.39C115.867 216.988 116.45 218.538 117.056 220.041C119.465 226.058 121.851 231.413 123.845 235.914C125.863 240.389 127.505 244.017 128.648 246.542C129.208 247.781 129.653 248.756 129.96 249.433C130.098 249.751 130.213 250.001 130.297 250.184C130.351 250.36 130.382 250.448 130.374 250.448Z" fill="#455A64"/>
<path d="M116.68 144.435C116.665 144.455 116.504 144.334 116.212 144.103C115.944 143.853 115.621 143.44 115.345 142.878C114.793 141.748 114.517 140.055 114.471 138.214C114.432 136.366 114.586 134.701 114.724 133.51C114.862 132.311 114.977 131.574 115.031 131.58C115.084 131.58 115.061 132.332 114.992 133.53C114.923 134.728 114.816 136.386 114.854 138.214C114.893 140.035 115.13 141.687 115.598 142.797C115.828 143.352 116.105 143.765 116.327 144.029C116.573 144.266 116.695 144.415 116.68 144.435Z" fill="#455A64"/>
<path d="M109.016 130.45C109.054 130.443 109.238 131.066 109.169 132.095C109.108 133.11 108.709 134.545 107.704 135.858C106.691 137.172 105.326 138.018 104.275 138.444C103.216 138.878 102.495 138.952 102.487 138.918C102.472 138.864 103.162 138.702 104.152 138.228C105.142 137.761 106.423 136.921 107.39 135.669C108.356 134.417 108.778 133.056 108.909 132.074C109.039 131.079 108.955 130.457 109.016 130.45Z" fill="#455A64"/>
<path d="M140.854 164.607C140.861 164.607 140.861 164.668 140.846 164.783C140.831 164.919 140.815 165.095 140.8 165.305C140.746 165.785 140.67 166.462 140.57 167.308C140.355 169.075 140.04 171.586 139.657 174.68C138.859 180.921 137.754 189.505 136.534 198.982C136.066 203.727 136.534 208.296 137.547 212.317C138.046 214.334 138.706 216.209 139.404 217.942C140.094 219.675 140.739 221.293 141.322 222.775C142.48 225.713 143.416 228.103 144.076 229.782C144.383 230.594 144.628 231.23 144.805 231.69C144.881 231.894 144.935 232.056 144.989 232.191C145.027 232.306 145.042 232.361 145.035 232.367C145.027 232.367 144.996 232.313 144.95 232.205C144.897 232.076 144.82 231.914 144.736 231.718C144.544 231.264 144.275 230.628 143.938 229.829C143.247 228.157 142.273 225.781 141.068 222.857C140.47 221.381 139.81 219.77 139.105 218.037C138.391 216.304 137.716 214.415 137.202 212.391C136.166 208.343 135.683 203.74 136.159 198.954C137.355 189.45 138.544 180.874 139.388 174.653C139.818 171.566 140.171 169.055 140.416 167.295C140.547 166.449 140.647 165.778 140.716 165.298C140.754 165.088 140.777 164.912 140.8 164.777C140.838 164.668 140.854 164.607 140.854 164.607Z" fill="#455A64"/>
<path d="M106.369 129.455L109.515 122.374L116.68 131.804L107.121 129.698" fill="#FFBE9D"/>
<path d="M181.414 108.159L172.906 91.3236C171.886 88.6159 169.983 88.1962 168.38 86.6258L147.06 76.0184C131.525 70.3999 123.063 89.2387 123.063 89.2387L108.939 117.663C92.3298 122.523 104.091 133.773 104.091 133.773C104.091 133.773 99.5719 126.842 104.014 124.344C108.663 121.724 113.826 128.622 118.782 135.175C124.636 142.905 143.646 147.928 143.646 147.928C145.871 145.857 145.25 138.62 146.991 134.735C147.544 133.503 160.708 106.595 160.708 106.595L165.81 117.507C165.81 117.507 172.354 110.738 175.522 109.661C178.683 108.585 181.414 108.159 181.414 108.159Z" fill="#E8505B"/>
<path d="M143.639 120.12C143.654 120.14 143.424 120.289 142.994 120.519C142.557 120.749 141.905 121.047 141.053 121.332C139.366 121.907 136.811 122.347 134.049 121.975C131.279 121.596 129.001 120.492 127.589 119.497C126.876 119.003 126.354 118.543 126.017 118.211C125.679 117.873 125.518 117.676 125.541 117.663C125.595 117.615 126.308 118.387 127.758 119.314C129.185 120.242 131.425 121.284 134.118 121.65C136.811 122.015 139.296 121.623 140.977 121.115C142.657 120.601 143.6 120.066 143.639 120.12Z" fill="#263238"/>
<path d="M108.302 93.4221L121.459 94.5187L142.511 74.8879L130.129 74.5156L108.08 76.4381C108.08 76.4313 110.036 84.5408 108.302 93.4221Z" fill="#E8505B"/>
<path d="M126.576 83.0787C126.592 83.0855 126.53 83.2073 126.415 83.4375C126.277 83.7015 126.101 84.0332 125.886 84.4393C125.403 85.3464 124.743 86.5919 123.93 88.115C122.296 91.2289 120.124 95.5612 117.769 100.367C115.414 105.173 113.274 109.526 111.655 112.647C110.849 114.21 110.182 115.469 109.699 116.329C109.468 116.735 109.284 117.06 109.139 117.317C109.008 117.541 108.931 117.656 108.924 117.656C108.908 117.649 108.962 117.527 109.069 117.29C109.2 117.026 109.361 116.688 109.56 116.275C110.013 115.354 110.642 114.095 111.402 112.552C112.959 109.364 115.076 105.031 117.409 100.239C119.764 95.4326 121.973 91.107 123.677 88.0202C124.52 86.4769 125.226 85.2313 125.74 84.3852C125.978 83.9858 126.178 83.6676 126.331 83.4104C126.484 83.187 126.561 83.0719 126.576 83.0787Z" fill="#263238"/>
<path d="M166.738 88.7919C166.777 88.8461 165.956 89.2252 164.843 90.0578C164.283 90.4707 163.677 91.0258 163.064 91.6824C162.473 92.3526 161.89 93.1378 161.391 94.0178C160.915 94.9046 160.578 95.7913 160.348 96.6172C160.141 97.4498 160.026 98.208 160.003 98.851C159.949 100.137 160.118 100.936 160.049 100.95C160.026 100.956 159.964 100.76 159.887 100.394C159.841 100.212 159.803 99.995 159.788 99.731C159.765 99.4738 159.719 99.176 159.734 98.8443C159.719 98.1877 159.811 97.4024 160.003 96.5427C160.217 95.6898 160.555 94.776 161.046 93.8621C161.552 92.955 162.158 92.1563 162.787 91.4793C163.432 90.8159 164.069 90.2676 164.667 89.8683C164.951 89.6516 165.242 89.5027 165.488 89.3538C165.733 89.2049 165.956 89.0966 166.14 89.0153C166.516 88.8529 166.723 88.7716 166.738 88.7919Z" fill="#263238"/>
<path d="M170.413 61.8233L158.069 82.1852C156.052 85.5089 151.472 86.8898 147.567 85.3532C143.27 83.6609 141.498 79.1119 143.692 75.443C144.858 73.5003 145.825 71.9163 145.825 71.9163C145.825 71.9163 140.455 68.8498 142.971 63.7323C145.211 59.1698 153.435 46.2812 155.177 43.5599L165.58 47.6689C171.426 50.3427 173.612 56.7464 170.413 61.8233Z" fill="#FFBE9D"/>
<path d="M145.856 71.835C145.856 71.835 149.369 73.5341 154.333 72.9181C154.333 72.9181 150.697 75.8762 145.173 73.1482L145.856 71.835Z" fill="#EB996E"/>
<path d="M149.822 55.5618C149.615 55.9409 149.799 56.4079 150.244 56.611C150.689 56.8141 151.218 56.6719 151.426 56.2929C151.633 55.9138 151.449 55.4467 151.004 55.2436C150.559 55.0405 150.029 55.1827 149.822 55.5618Z" fill="#263238"/>
<path d="M149.868 54.912C149.922 55.0473 150.75 54.8849 151.64 55.2369C152.53 55.5753 152.975 56.2387 153.121 56.1778C153.19 56.1575 153.175 55.9409 152.983 55.6498C152.799 55.3587 152.408 54.9932 151.855 54.7766C151.303 54.5599 150.743 54.5599 150.39 54.6344C150.014 54.7156 149.837 54.851 149.868 54.912Z" fill="#263238"/>
<path d="M158.108 59.1563C157.901 59.5354 158.085 60.0024 158.53 60.2055C158.975 60.4086 159.504 60.2664 159.711 59.8874C159.918 59.5083 159.734 59.0412 159.289 58.8381C158.852 58.635 158.323 58.784 158.108 59.1563Z" fill="#263238"/>
<path d="M158.507 58.4997C158.56 58.635 159.389 58.4726 160.279 58.8246C161.169 59.163 161.614 59.8264 161.759 59.7655C161.828 59.7384 161.813 59.5286 161.621 59.2375C161.437 58.9464 161.046 58.5809 160.494 58.3643C159.941 58.1477 159.381 58.1477 159.028 58.2221C158.652 58.3033 158.476 58.432 158.507 58.4997Z" fill="#263238"/>
<path d="M152.346 63.0283C152.369 62.9876 151.863 62.683 151.027 62.2295C150.812 62.1212 150.62 61.9926 150.651 61.8436C150.674 61.6812 150.873 61.4984 151.103 61.3089C151.564 60.9095 152.039 60.4898 152.546 60.0498C154.571 58.2492 156.151 56.7397 156.067 56.6652C155.983 56.5907 154.272 57.992 152.246 59.7926C151.755 60.2393 151.28 60.6658 150.827 61.072C150.628 61.2683 150.352 61.4646 150.313 61.8098C150.298 61.9858 150.413 62.155 150.536 62.2498C150.658 62.3446 150.789 62.3987 150.896 62.4461C151.763 62.8455 152.323 63.0689 152.346 63.0283Z" fill="#263238"/>
<path d="M154.678 64.5987C154.54 64.531 154.103 65.384 152.975 65.6615C151.848 65.939 150.873 65.4381 150.804 65.5599C150.766 65.6073 150.95 65.8172 151.38 65.9932C151.794 66.1759 152.477 66.2978 153.167 66.1286C153.858 65.9593 154.326 65.5464 154.533 65.2147C154.748 64.8695 154.748 64.619 154.678 64.5987Z" fill="#263238"/>
<path d="M159.826 55.3451C159.803 55.5956 160.739 55.8393 161.729 56.3605C162.726 56.8614 163.424 57.4639 163.662 57.3285C163.769 57.2608 163.723 57.0036 163.493 56.6651C163.263 56.3267 162.826 55.9205 162.235 55.6091C161.644 55.3045 161.023 55.1624 160.578 55.1488C160.118 55.1353 159.841 55.2233 159.826 55.3451Z" fill="#263238"/>
<path d="M151.341 52.7796C151.41 53.0165 152.108 53.0775 152.852 53.355C153.604 53.6122 154.149 54.0116 154.387 53.883C154.494 53.8153 154.487 53.5987 154.302 53.3279C154.118 53.0572 153.742 52.739 153.228 52.5562C152.714 52.3735 152.2 52.3599 151.847 52.4412C151.495 52.5156 151.318 52.6645 151.341 52.7796Z" fill="#263238"/>
<path d="M166.531 64.8762C166.646 64.8762 171.019 65.4042 169.124 68.8362C167.237 72.2682 163.723 69.8855 163.769 69.7839C163.823 69.6824 166.531 64.8762 166.531 64.8762Z" fill="#FFBE9D"/>
<path d="M165.68 68.9919C165.703 68.9851 165.726 69.0596 165.81 69.1611C165.894 69.2559 166.071 69.3642 166.309 69.3845C166.792 69.4251 167.452 68.9987 167.812 68.3895C167.996 68.0848 168.081 67.7531 168.096 67.4553C168.119 67.1507 168.027 66.9002 167.843 66.7784C167.659 66.6498 167.452 66.6971 167.352 66.7716C167.245 66.8461 167.237 66.9273 167.214 66.9205C167.199 66.9273 167.16 66.8258 167.268 66.6971C167.321 66.6362 167.413 66.5753 167.536 66.5482C167.667 66.5211 167.82 66.5482 167.958 66.6227C168.25 66.7716 168.38 67.1304 168.372 67.4553C168.38 67.7938 168.288 68.1661 168.081 68.5113C167.674 69.1882 166.915 69.6688 166.278 69.5673C165.971 69.5131 165.779 69.3439 165.71 69.2085C165.641 69.0799 165.657 68.9919 165.68 68.9919Z" fill="#EB996E"/>
<path d="M168.787 65.6276C168.25 65.2621 166.961 65.3433 166.455 65.7359C165.948 66.1286 165.603 66.6701 165.097 67.0695C164.59 67.4689 163.785 67.6855 163.248 67.3267C162.879 67.0763 162.757 66.6159 162.826 66.2098C162.903 65.8036 163.14 65.4381 163.386 65.0861C164.445 63.5563 165.649 62.0941 166.547 60.4898C167.452 58.8855 168.05 57.0781 167.782 55.2978C167.513 53.5175 166.247 51.7846 164.329 51.1889C163.064 50.7895 161.652 50.9113 160.355 50.5796C158.821 50.187 157.525 49.1378 156.949 47.8178C156.872 47.6486 156.443 47.0461 156.443 47.0461C156.489 46.9649 156.942 46.2676 157.402 46.1322C160.816 45.1169 165.45 46.2812 168.28 48.251C171.111 50.2209 173.091 53.3889 173.129 56.5704C173.167 59.7452 170.897 63.2584 168.787 65.6276Z" fill="#263238"/>
<path d="M168.825 65.2824C169.907 63.6646 171.656 62.4867 172.991 61.0246C174.326 59.5624 175.246 57.4978 174.295 55.819C173.973 55.2437 173.451 54.763 173.175 54.1673C172.899 53.5717 172.899 52.9083 172.799 52.2652C172.477 50.2886 171.058 48.4812 169.086 47.5064C167.72 46.8363 166.148 46.5587 164.759 45.9157C162.565 44.9003 160.961 43.0117 158.66 42.2129C157.893 41.9489 157.003 41.8135 156.274 42.152C155.545 42.4837 155.154 43.4178 155.683 43.9729C155.591 43.323 154.632 42.971 153.957 43.235C153.282 43.5058 152.937 44.2166 152.983 44.8664C153.029 45.5163 153.397 46.1187 153.819 46.6603C155.215 48.427 157.356 49.7267 159.726 50.248L165.02 49.8824L169.362 52.7187L172.577 57.2338L166.746 63.915L168.825 65.2824Z" fill="#263238"/>
<path d="M135.691 38.6456C135.023 29.5477 126.131 22.6566 115.821 23.2388C105.51 23.8277 97.6999 31.6733 98.3597 40.7711C98.843 47.3576 103.638 52.7865 110.159 55.0609C110.305 57.0105 110.466 59.2173 110.466 59.2173L126.822 58.2831C126.822 58.2831 126.753 55.9477 126.638 53.8628C132.453 50.7896 136.158 45.0222 135.691 38.6456Z" fill="#E8505B"/>
<path d="M120.907 58.5539C120.907 58.5539 120.907 58.4862 120.907 58.3508C120.915 58.2087 120.922 58.0123 120.938 57.7551C120.968 57.2271 121.022 56.4554 121.114 55.4536C121.206 54.4585 121.337 53.2333 121.597 51.832C121.858 50.4308 122.242 48.8333 122.955 47.1545C123.316 46.3151 123.738 45.4487 124.313 44.6025C124.612 44.1896 124.988 43.7767 125.518 43.5194C126.047 43.2622 126.722 43.2216 127.29 43.472C127.574 43.5939 127.819 43.8173 127.927 44.088C128.049 44.3588 128.034 44.6702 127.911 44.941C127.658 45.4757 127.137 45.8751 126.553 46.1188C125.349 46.5723 123.922 46.552 122.656 46.0985C121.383 45.645 120.332 44.6837 119.818 43.4991C119.572 42.9102 119.411 42.2603 119.564 41.6037C119.695 40.9539 120.355 40.3447 121.176 40.365C121.582 40.365 121.966 40.5884 122.165 40.893C122.372 41.1908 122.449 41.5564 122.388 41.9016C122.257 42.5988 121.736 43.1471 121.199 43.6142C120.086 44.5416 118.521 45.1102 116.933 44.9748C115.353 44.8462 113.887 44.0136 113.151 42.8087C112.767 42.2197 112.629 41.4819 112.882 40.8185C113.005 40.4936 113.266 40.1822 113.65 40.0468C114.018 39.8979 114.455 39.9317 114.808 40.0739C115.161 40.216 115.46 40.4597 115.652 40.7508C115.844 41.0419 115.951 41.36 116.005 41.685C116.104 42.328 116.051 42.9779 115.859 43.5803C115.491 44.7988 114.601 45.8616 113.427 46.4911C112.261 47.1274 110.88 47.3576 109.599 47.1816C108.97 47.0936 108.318 46.9108 107.857 46.4911C107.412 46.0782 107.244 45.3945 107.635 44.9139C107.827 44.677 108.141 44.5416 108.448 44.501C108.755 44.4671 109.069 44.501 109.353 44.6025C109.929 44.8123 110.297 45.2456 110.581 45.6653C111.118 46.5317 111.555 47.3779 112 48.1834C113.734 51.4191 114.992 54.093 115.844 55.9477C116.266 56.8751 116.58 57.5994 116.795 58.0936C116.895 58.3373 116.971 58.52 117.033 58.6554C117.086 58.784 117.109 58.8517 117.109 58.8517C117.109 58.8517 117.071 58.7908 117.017 58.6622C116.956 58.5268 116.872 58.344 116.757 58.1071C116.526 57.613 116.189 56.8954 115.767 55.9748C114.892 54.1336 113.611 51.4665 111.862 48.2443C111.417 47.4456 110.964 46.5859 110.443 45.7397C110.167 45.3336 109.806 44.9274 109.3 44.7447C108.809 44.5619 108.141 44.6025 107.811 45.0019C107.489 45.3945 107.627 46.0037 108.018 46.3625C108.425 46.7416 109.031 46.9176 109.645 46.9988C110.872 47.168 112.215 46.9447 113.327 46.3287C114.447 45.7194 115.307 44.6973 115.652 43.5262C115.836 42.944 115.882 42.3145 115.79 41.7053C115.698 41.1096 115.368 40.4936 114.724 40.2499C114.417 40.128 114.056 40.101 113.749 40.2228C113.442 40.3379 113.22 40.5884 113.105 40.8794C112.882 41.4684 112.997 42.152 113.366 42.7071C114.064 43.8511 115.468 44.6431 116.971 44.7717C118.483 44.9003 119.994 44.352 121.06 43.4653C121.582 43.0185 122.073 42.4905 122.188 41.8677C122.242 41.5699 122.173 41.2517 121.996 40.9945C121.82 40.7373 121.521 40.568 121.191 40.5613C120.861 40.5545 120.531 40.6764 120.286 40.8794C120.032 41.0757 119.879 41.3533 119.81 41.6444C119.664 42.2333 119.81 42.8628 120.048 43.4247C120.531 44.5619 121.544 45.4825 122.764 45.9157C123.968 46.3557 125.357 46.3693 126.492 45.9496C127.044 45.7194 127.535 45.3471 127.758 44.8733C127.996 44.3994 127.743 43.8308 127.229 43.621C126.73 43.3976 126.101 43.4314 125.625 43.6616C125.134 43.8985 124.774 44.2844 124.482 44.6837C123.914 45.5096 123.485 46.376 123.132 47.2019C122.411 48.8671 122.019 50.4511 121.751 51.8523C121.482 53.2536 121.337 54.4653 121.237 55.4603C121.145 56.4487 121.068 57.2203 121.022 57.7551C120.999 58.0123 120.976 58.2087 120.968 58.3508C120.922 58.4862 120.907 58.5539 120.907 58.5539Z" fill="#263238"/>
<path d="M125.763 61.0314L111.716 61.8302C111.133 61.864 110.635 61.4714 110.596 60.957C110.558 60.4425 111.003 60.0025 111.586 59.9686L125.633 59.1699C126.216 59.136 126.715 59.5286 126.753 60.0431C126.791 60.5508 126.346 60.9976 125.763 61.0314Z" fill="#263238"/>
<path d="M125.825 61.8437L111.778 62.6425C111.194 62.6764 110.757 63.1164 110.788 63.6308C110.826 64.1453 111.325 64.5311 111.908 64.504L113.45 64.416L115.744 67.733C116.005 68.112 116.488 68.3354 116.987 68.3016L122.004 68.0173C122.51 67.9902 122.955 67.7127 123.162 67.2997L124.896 63.7594L125.947 63.6985C126.53 63.6647 126.968 63.2247 126.937 62.7102C126.906 62.1957 126.408 61.8099 125.825 61.8437Z" fill="#263238"/>
<g opacity="0.2">
<path opacity="0.2" d="M104.267 29.8997C105.448 28.8031 106.707 28.0111 107.842 27.4966C108.977 26.9754 109.967 26.6979 110.665 26.5963C111.363 26.488 111.77 26.5286 111.816 26.6573C111.916 26.9483 110.535 27.4763 108.709 28.7083C106.891 29.9132 104.651 31.9779 103.415 34.7736C102.188 37.576 102.265 40.4326 102.687 42.4025C103.093 44.3994 103.715 45.6043 103.408 45.76C103.277 45.8277 102.947 45.6179 102.51 45.1237C102.073 44.6296 101.551 43.8376 101.114 42.7816C100.669 41.7256 100.347 40.3853 100.308 38.8757C100.27 37.3662 100.554 35.6874 101.267 34.0425" fill="white"/>
</g>
<g opacity="0.2">
<path opacity="0.2" d="M116.358 27.1108C115.176 27.1717 114.11 26.9416 113.949 26.4C113.88 26.1293 114.072 25.8246 114.486 25.5742C114.892 25.3237 115.514 25.1274 116.227 25.0936C116.933 25.0597 117.578 25.1816 118.015 25.3914C118.46 25.6013 118.69 25.8788 118.659 26.1563" fill="white"/>
</g>
<path d="M122.933 67.6044C122.917 67.6382 122.557 67.5163 121.951 67.3945C121.344 67.2794 120.485 67.1914 119.549 67.2659C118.606 67.3471 117.785 67.5705 117.217 67.7871C116.649 68.0037 116.312 68.1797 116.296 68.1527C116.281 68.1324 116.588 67.909 117.156 67.6585C117.723 67.408 118.567 67.1508 119.534 67.0696C120.501 66.9883 121.391 67.1034 121.997 67.2591C122.603 67.4148 122.948 67.5908 122.933 67.6044Z" fill="#455A64"/>
<path d="M124.942 63.8C124.95 63.8542 122.411 64.0437 119.281 64.2265C116.151 64.4025 113.604 64.504 113.604 64.4499C113.596 64.3957 116.135 64.2062 119.265 64.0234C122.395 63.8474 124.942 63.7459 124.942 63.8Z" fill="#455A64"/>
<path d="M124.175 65.3231C124.175 65.3502 123.654 65.4314 122.802 65.5262C121.95 65.621 120.769 65.736 119.457 65.824C118.145 65.912 116.964 65.9662 116.105 65.9933C115.245 66.0136 114.716 66.0068 114.708 65.9797C114.708 65.9527 115.238 65.9053 116.089 65.8443C117.017 65.7834 118.161 65.7022 119.434 65.621C120.708 65.533 121.851 65.445 122.779 65.384C123.638 65.3231 124.168 65.296 124.175 65.3231Z" fill="#455A64"/>
<path d="M23.0308 148.226L26.0841 152.538C26.0841 152.538 39.0955 141.971 52.007 144.956C51.9994 144.956 40.3997 136.278 23.0308 148.226Z" fill="#E8505B"/>
<path d="M51.9993 144.956C51.9993 144.956 61.5506 135.804 75.5593 137.889L79.3798 138.397L78.16 136.447C78.1523 136.454 53.7945 129.096 51.9993 144.956Z" fill="#E8505B"/>
<path d="M31.8379 114.102C31.8379 114.102 12.7045 111.198 0.161133 117.189L20.0847 150.29C20.0847 150.29 36.3949 136.42 51.9993 144.963L31.8379 114.102Z" fill="#F5F5F5"/>
<path d="M31.8379 114.102C31.8379 114.102 31.8763 114.143 31.9377 114.238C32.0067 114.339 32.1064 114.481 32.2215 114.657C32.4824 115.043 32.8506 115.591 33.3263 116.302C34.2929 117.764 35.6968 119.883 37.4767 122.57C41.0441 127.993 46.1074 135.703 52.1451 144.889C52.1911 144.963 52.1681 145.051 52.0837 145.092C52.03 145.119 51.961 145.119 51.9073 145.092C49.7439 143.921 47.2582 143.027 44.5731 142.607C43.2305 142.411 41.8419 142.33 40.438 142.357C39.0341 142.404 37.6148 142.567 36.2032 142.824C30.5491 143.927 25.0638 146.635 20.3763 150.277L20.2152 150.412C20.1385 150.48 20.0157 150.473 19.9467 150.406C19.9313 150.392 19.9237 150.378 19.916 150.365C12.5127 138.045 5.65418 126.625 0.0231048 117.25C-0.0152541 117.182 0.00776124 117.101 0.084479 117.067H0.0921507C4.4804 115.063 8.93003 114.197 12.8426 113.737C16.7706 113.29 20.2229 113.276 23.0461 113.344C25.8693 113.425 28.0711 113.628 29.5671 113.791C30.3113 113.872 30.8866 113.946 31.2702 114.001C31.4543 114.028 31.5924 114.055 31.7075 114.068C31.7919 114.089 31.8379 114.095 31.8379 114.102C31.8379 114.102 31.7842 114.102 31.6845 114.089C31.5771 114.075 31.4313 114.062 31.2472 114.041C30.8636 114.001 30.2882 113.933 29.5441 113.872C28.0481 113.737 25.8463 113.561 23.0307 113.5C20.2152 113.452 16.7706 113.486 12.8656 113.953C8.97606 114.434 4.55712 115.314 0.230243 117.304L0.291617 117.114C5.93804 126.483 12.8196 137.889 20.2459 150.202L19.9467 150.169L20.1155 150.026C22.4784 148.158 25.0561 146.594 27.7412 145.302C30.434 144.022 33.2495 143.041 36.1188 142.499C37.5534 142.235 38.9957 142.079 40.4226 142.025C41.8496 142.005 43.2612 142.086 44.6268 142.289C47.3579 142.722 49.8896 143.636 52.0761 144.828L51.8382 145.031C45.8619 135.831 40.8523 128.121 37.3309 122.692C35.5818 119.985 34.2008 117.846 33.2572 116.37C32.7969 115.646 32.4363 115.084 32.1832 114.691C32.0681 114.508 31.976 114.366 31.9147 114.258C31.8686 114.156 31.8379 114.102 31.8379 114.102Z" fill="#263238"/>
<path d="M61.9113 107.306C61.9113 107.306 47.4424 99.1691 32.0835 114.095L52.2449 144.956C52.2449 144.956 56.357 132.433 80.431 136.786L61.9113 107.306Z" fill="#F5F5F5"/>
<path d="M61.9113 107.306C61.9113 107.306 61.9497 107.346 62.011 107.434C62.0801 107.536 62.1645 107.665 62.2795 107.834C62.5174 108.199 62.8549 108.727 63.2922 109.404C64.1821 110.799 65.471 112.823 67.1051 115.388C70.3733 120.567 75.03 127.925 80.5767 136.718C80.6227 136.793 80.5921 136.881 80.5153 136.921C80.4847 136.935 80.4463 136.942 80.4079 136.935H80.4003C79.2265 136.766 78.0297 136.59 76.8175 136.414C76.2115 136.305 75.5901 136.278 74.9687 136.231C74.3472 136.19 73.7182 136.143 73.0814 136.095C72.4446 136.028 71.8079 136.041 71.1635 136.055C70.519 136.062 69.8669 136.068 69.2148 136.075C68.5627 136.089 67.9106 136.19 67.2509 136.244C66.5911 136.319 65.9236 136.346 65.2715 136.508C64.6194 136.637 63.9597 136.772 63.2922 136.901C62.6478 137.097 62.0034 137.3 61.3589 137.497C60.7068 137.693 60.1161 138.011 59.4793 138.262C59.1571 138.383 58.8656 138.546 58.5741 138.715L57.6918 139.216C57.1088 139.561 56.5871 139.981 56.0424 140.374C55.5591 140.827 55.0144 141.233 54.5924 141.741C53.6872 142.702 52.9123 143.812 52.4443 144.99V144.997C52.406 145.085 52.2986 145.132 52.1988 145.098C52.1528 145.085 52.1221 145.058 52.0991 145.024C51.8459 144.631 51.5621 144.205 51.2859 143.778C44.1588 132.846 37.5151 122.665 31.9607 114.15C31.9223 114.095 31.9377 114.028 31.9837 113.98C35.39 110.697 39.1568 108.199 42.9083 106.737C46.6521 105.241 50.2962 104.869 53.2115 105.031C56.1421 105.194 58.3593 105.823 59.8016 106.331C60.5227 106.588 61.0597 106.832 61.4126 107.001C61.5814 107.089 61.7042 107.15 61.8039 107.204C61.8729 107.279 61.9113 107.306 61.9113 107.306C61.9113 107.306 61.8576 107.286 61.7732 107.245C61.6735 107.198 61.5354 107.137 61.3666 107.062C61.006 106.906 60.469 106.676 59.7402 106.433C58.2902 105.945 56.0808 105.35 53.1731 105.214C50.2886 105.072 46.6828 105.465 42.985 106.967C39.2872 108.43 35.5664 110.927 32.1985 114.19L32.2215 114.028C37.7836 122.53 44.4503 132.711 51.5928 143.63C51.8689 144.056 52.1451 144.482 52.406 144.875L52.0607 144.909C52.5594 143.643 53.3496 142.533 54.2779 141.538C54.7152 141.017 55.2675 140.597 55.7662 140.137C56.3263 139.737 56.8633 139.304 57.4617 138.959L58.3669 138.451C58.6661 138.275 58.9653 138.113 59.2876 137.984C59.932 137.727 60.538 137.409 61.2055 137.206C61.8653 137.002 62.525 136.799 63.1771 136.603C63.8523 136.468 64.5197 136.339 65.1871 136.204C65.8469 136.041 66.5297 136.014 67.1895 135.94C67.8569 135.886 68.5167 135.784 69.1841 135.77C69.8439 135.764 70.5037 135.757 71.1558 135.75C71.8079 135.737 72.46 135.73 73.0967 135.798C73.7335 135.845 74.3703 135.892 74.9993 135.933C75.6284 135.98 76.2575 136.007 76.8636 136.122C78.0834 136.305 79.2879 136.481 80.4693 136.657L80.2852 136.874C74.7922 128.074 70.1891 120.702 66.9516 115.517C65.3482 112.931 64.0901 110.894 63.2155 109.486C62.7936 108.795 62.4713 108.26 62.2412 107.888C62.1338 107.712 62.0571 107.577 61.9957 107.475C61.9343 107.36 61.9113 107.313 61.9113 107.306Z" fill="#263238"/>
<path d="M5.54785 101.274L27.1209 137.93C27.1209 137.93 44.6585 137.253 52.0771 144.794L32.0845 114.102C32.0845 114.102 20.362 101.274 5.54785 101.274Z" fill="#F5F5F5"/>
<path d="M5.54755 101.274C5.54755 101.274 5.724 101.274 6.09225 101.288C6.48351 101.302 7.03588 101.322 7.75702 101.349C7.94115 101.356 8.14061 101.362 8.34008 101.376C8.53954 101.403 8.74668 101.437 8.96916 101.471C9.41413 101.538 9.88978 101.606 10.4115 101.681C10.9408 101.735 11.4778 101.89 12.0609 102.026C12.6363 102.182 13.2807 102.283 13.9098 102.506C19.0652 104.023 25.9852 107.692 32.1993 114.007L32.207 114.021V114.028C37.8994 122.746 44.7887 133.306 52.2303 144.706C52.284 144.787 52.2533 144.889 52.1612 144.936C52.0845 144.977 51.9925 144.963 51.9311 144.909L51.9234 144.902C51.6549 144.665 51.3634 144.415 51.0795 144.158C49.4761 142.783 47.5735 141.7 45.5558 140.935C43.5458 140.15 41.4745 139.548 39.3877 139.148C35.2143 138.322 31.0562 138.011 27.1206 138.079H27.1129C27.0439 138.079 26.9825 138.045 26.9518 137.991C20.6609 127.228 15.2907 118.035 11.4778 111.516C9.59825 108.287 8.10993 105.722 7.07424 103.948C6.57557 103.082 6.18431 102.412 5.9158 101.945C5.79305 101.728 5.69332 101.559 5.62427 101.43C5.57057 101.329 5.53988 101.274 5.54755 101.274C5.55523 101.274 5.59358 101.335 5.66263 101.457C5.73935 101.586 5.84675 101.762 5.97717 101.985C6.26103 102.459 6.66763 103.136 7.18931 104.009C8.24802 105.783 9.7747 108.348 11.7003 111.584C15.5362 118.055 20.9448 127.18 27.2817 137.862L27.1129 137.781C31.0869 137.706 35.2603 138.011 39.4721 138.844C41.5819 139.243 43.6763 139.852 45.7169 140.644C47.7653 141.423 49.7063 142.519 51.348 143.927C51.6472 144.191 51.9388 144.449 52.2149 144.692L51.9081 144.889C44.4895 133.476 37.6156 122.909 31.9384 114.177L31.9538 114.197C28.9158 111.049 25.6016 108.578 22.5098 106.656C19.3874 104.761 16.4108 103.441 13.8484 102.676C13.2193 102.446 12.5902 102.337 12.0149 102.182C11.4318 102.039 10.8948 101.877 10.3731 101.816C9.85909 101.735 9.38344 101.66 8.93848 101.586C8.72367 101.552 8.50886 101.518 8.30939 101.484C8.10992 101.464 7.9258 101.457 7.74935 101.444C6.44515 101.335 5.83908 101.295 5.54755 101.274Z" fill="#263238"/>
<path d="M72.8973 205.236L73.3576 205.913C73.8793 206.678 74.6311 207.287 75.5364 207.687L76.3419 208.039L75.5748 208.445C74.7078 208.905 74.0174 209.569 73.5648 210.367L73.1658 211.078L72.7055 210.401C72.1838 209.636 71.432 209.027 70.5267 208.628L69.7212 208.276L70.4884 207.87C71.3553 207.409 72.0457 206.746 72.4984 205.947L72.8973 205.236Z" fill="#E8505B"/>
<path d="M30.3573 65.6141L30.8176 66.2911C31.3393 67.056 32.0911 67.6652 32.9964 68.0646L33.8019 68.4166L33.0347 68.8227C32.1678 69.2831 31.4773 69.9464 31.0247 70.7452L30.6258 71.456L30.1655 70.7791C29.6438 70.0141 28.892 69.4049 27.9867 69.0055L27.1812 68.6535L27.9483 68.2474C28.8152 67.7871 29.5057 67.1237 29.9583 66.3249L30.3573 65.6141Z" fill="#E8505B"/>
<path d="M227.207 89.6991L227.667 90.376C228.189 91.1409 228.941 91.7502 229.846 92.1496L230.652 92.5016L229.885 92.9077C229.018 93.368 228.327 94.0314 227.875 94.8302L227.476 95.5409L227.015 94.864C226.494 94.0991 225.742 93.4899 224.837 93.0905L224.031 92.7385L224.798 92.3323C225.665 91.872 226.356 91.2086 226.808 90.4099L227.207 89.6991Z" fill="#E8505B"/>
<path d="M203.962 214.009L204.422 214.686C204.944 215.451 205.696 216.06 206.601 216.46L207.406 216.812L206.639 217.218C205.772 217.678 205.082 218.342 204.629 219.14L204.23 219.851L203.77 219.174C203.248 218.409 202.496 217.8 201.591 217.401L200.786 217.049L201.553 216.642C202.42 216.182 203.11 215.519 203.563 214.72L203.962 214.009Z" fill="#E8505B"/>
<path d="M208.388 240.132L208.611 240.213C208.856 240.301 209.133 240.328 209.393 240.281L209.631 240.24L209.539 240.436C209.439 240.653 209.409 240.897 209.462 241.127L209.508 241.337L209.286 241.255C209.04 241.167 208.764 241.14 208.503 241.188L208.266 241.228L208.358 241.032C208.457 240.815 208.488 240.572 208.434 240.342L208.388 240.132Z" fill="#E8505B"/>
<path d="M221.768 63.4954L221.99 63.5766C222.236 63.6646 222.512 63.6917 222.773 63.6443L223.011 63.6037L222.919 63.8C222.819 64.0166 222.788 64.2603 222.842 64.4904L222.888 64.7003L222.666 64.6191C222.42 64.5311 222.144 64.504 221.883 64.5514L221.645 64.592L221.737 64.3957C221.837 64.179 221.868 63.9354 221.814 63.7052L221.768 63.4954Z" fill="#E8505B"/>
<path d="M39.0109 47.3711L39.2334 47.4523C39.4789 47.5403 39.7551 47.5674 40.0159 47.52L40.2538 47.4794L40.1617 47.6757C40.062 47.8923 40.0313 48.136 40.085 48.3662L40.131 48.576L39.9085 48.4948C39.663 48.4068 39.3868 48.3797 39.126 48.4271L38.8882 48.4677L38.9802 48.2714C39.08 48.0548 39.1107 47.8111 39.057 47.5809L39.0109 47.3711Z" fill="#E8505B"/>
<path d="M61.5661 184.901L61.7886 184.983C62.0341 185.071 62.3103 185.098 62.5711 185.05L62.8089 185.01L62.7169 185.206C62.6171 185.423 62.5865 185.666 62.6402 185.897L62.6862 186.106L62.4637 186.025C62.2182 185.937 61.942 185.91 61.6812 185.958L61.4434 185.998L61.5354 185.802C61.6352 185.585 61.6658 185.341 61.6121 185.111L61.5661 184.901Z" fill="#E8505B"/>
<path d="M86.0158 238.06C86.0158 238.06 85.9468 238.128 85.8087 238.257C85.6553 238.392 85.4405 238.575 85.1719 238.818C84.5966 239.313 83.7603 240.03 82.694 240.951C80.5152 242.806 77.3851 245.473 73.4955 248.776L73.5339 248.695C73.9712 257.19 74.5619 268.732 75.2293 281.573L75.2447 281.864L74.9685 281.702C73.9175 281.079 72.782 280.415 71.6466 279.745C64.0746 275.271 56.9015 271.033 50.5876 267.31L50.5416 267.283L50.5262 267.242C47.3885 258.964 44.734 251.985 42.8621 247.057C41.9415 244.606 41.2204 242.67 40.714 241.33C40.4762 240.673 40.2844 240.166 40.154 239.807C40.0926 239.644 40.0543 239.516 40.0159 239.414C39.9852 239.326 39.9699 239.279 39.9775 239.279C39.9852 239.279 40.0006 239.319 40.0389 239.407C40.0773 239.502 40.131 239.631 40.2 239.793C40.3381 240.145 40.5453 240.653 40.7984 241.303C41.3201 242.636 42.0719 244.566 43.0232 247.009C44.9182 251.93 47.611 258.896 50.8024 267.161L50.741 267.094C57.0549 270.817 64.2357 275.041 71.8154 279.508C72.9508 280.178 74.0786 280.842 75.1373 281.465L74.8764 281.593C74.255 268.752 73.695 257.21 73.2807 248.715V248.668L73.3191 248.634C77.2317 245.358 80.3924 242.711 82.5866 240.876C83.676 239.976 84.5198 239.272 85.1106 238.785C85.3944 238.554 85.6092 238.378 85.7703 238.25C85.9391 238.121 86.0158 238.06 86.0158 238.06Z" fill="#E8505B"/>
<path d="M76.2191 277.708L76.15 279.623L77.8992 280.761L75.8125 281.295L75.1297 283.116L73.9099 281.526L71.7388 281.519L73.066 280.002L72.4062 278.175L74.4546 278.825L76.2191 277.708Z" fill="#E8505B"/>
<path d="M50.8563 264.697L50.8947 265.936L52.0761 266.613L50.7566 267.033L50.396 268.231L49.5367 267.249L48.1328 267.317L48.923 266.295L48.4167 265.137L49.7669 265.482L50.8563 264.697Z" fill="#E8505B"/>
<path d="M39.9316 236.997L40.9903 238.196L42.7165 238.108L41.7498 239.367L42.3789 240.788L40.7141 240.362L39.3793 241.33L39.3256 239.807L37.8679 238.988L39.4943 238.466L39.9316 236.997Z" fill="#E8505B"/>
<path d="M84.9572 235.793L86.0159 236.998L87.742 236.903L86.7754 238.169L87.4044 239.583L85.7473 239.164L84.4125 240.132L84.3511 238.609L82.9011 237.783L84.5199 237.268L84.9572 235.793Z" fill="#E8505B"/>
<path d="M73.1351 247.402L73.8179 248.167L74.915 248.106L74.2936 248.911L74.7002 249.818L73.6415 249.548L72.7899 250.164L72.7515 249.196L71.8232 248.668L72.8589 248.343L73.1351 247.402Z" fill="#E8505B"/>
<path d="M32.536 196.199C40.9846 196.199 47.8335 190.156 47.8335 182.702C47.8335 175.247 40.9846 169.204 32.536 169.204C24.0875 169.204 17.2385 175.247 17.2385 182.702C17.2385 190.156 24.0875 196.199 32.536 196.199Z" fill="#E8505B"/>
<g opacity="0.3">
<g opacity="0.3">
<g opacity="0.3">
<g opacity="0.3">
<path opacity="0.3" d="M30.5489 186.919C30.5489 188.137 29.4288 189.119 28.0556 189.119C26.6747 189.119 25.5623 188.13 25.5623 186.919C25.5623 185.7 26.6823 184.719 28.0556 184.719C29.4288 184.719 30.5489 185.7 30.5489 186.919Z" fill="white"/>
</g>
</g>
</g>
</g>
<g opacity="0.3">
<g opacity="0.3">
<g opacity="0.3">
<g opacity="0.3">
<path opacity="0.3" d="M27.0047 180.562C27.0047 181.273 26.3526 181.842 25.5547 181.842C24.7492 181.842 24.1047 181.266 24.1047 180.562C24.1047 179.852 24.7568 179.283 25.5547 179.283C26.3602 179.283 27.0047 179.858 27.0047 180.562Z" fill="white"/>
</g>
</g>
</g>
</g>
<path d="M17.6911 185.985C17.7602 186.222 4.59541 197.364 7.98634 199.74C11.3773 202.116 25.6544 196.023 37.8219 187.352C49.9893 178.681 61.1057 168.148 58.06 165.359C55.0143 162.57 39.8088 170.822 39.8088 170.822L41.6271 171.844C41.6271 171.844 50.8178 166.638 53.7331 168.662C56.6407 170.679 48.3475 178.572 36.6481 186.106C24.9486 193.641 13.6404 198.934 11.8836 196.87C10.1268 194.805 18.4123 187.921 18.4123 187.921L17.6911 185.985Z" fill="#E8505B"/>
<g opacity="0.3">
<g opacity="0.3">
<g opacity="0.3">
<g opacity="0.3">
<path opacity="0.3" d="M17.6911 185.985C17.7602 186.222 4.59541 197.364 7.98634 199.74C11.3773 202.116 25.6544 196.023 37.8219 187.352C49.9893 178.681 61.1057 168.148 58.06 165.359C55.0143 162.57 39.8088 170.822 39.8088 170.822L41.6271 171.844C41.6271 171.844 50.8178 166.638 53.7331 168.662C56.6407 170.679 48.3475 178.572 36.6481 186.106C24.9486 193.641 13.6404 198.934 11.8836 196.87C10.1268 194.805 18.4123 187.921 18.4123 187.921L17.6911 185.985Z" fill="black"/>
</g>
</g>
</g>
</g>
<g opacity="0.3">
<g opacity="0.3">
<g opacity="0.3">
<g opacity="0.3">
<g opacity="0.3">
<path opacity="0.3" d="M24.1048 173.191C24.2275 173.319 23.1919 174.098 22.0181 175.655C20.8443 177.191 19.6168 179.622 19.5478 182.438C19.4864 185.26 20.6065 187.731 21.7112 189.308C22.8159 190.906 23.8133 191.718 23.6829 191.847C23.6061 191.942 22.3786 191.312 21.0131 189.721C20.338 188.929 19.6628 187.894 19.1565 186.648C18.6502 185.409 18.3356 183.954 18.3663 182.417C18.4123 180.881 18.7883 179.439 19.3483 178.22C19.9083 176.995 20.6295 175.98 21.343 175.215C22.7699 173.678 24.0281 173.096 24.1048 173.191Z" fill="white"/>
</g>
</g>
</g>
</g>
</g>
<path d="M209.869 64.2832C214.901 60.0281 215.071 52.9791 210.248 48.5389C205.426 44.0986 197.437 43.9486 192.405 48.2037C187.373 52.4588 187.203 59.5078 192.025 63.948C196.847 68.3882 204.836 68.5383 209.869 64.2832Z" fill="#E8505B"/>
<g opacity="0.4">
<g opacity="0.4">
<g opacity="0.4">
<g opacity="0.4">
<path opacity="0.4" d="M205.258 51.981C205.289 50.9791 206.225 50.1871 207.368 50.2074C208.503 50.2345 209.401 51.0603 209.378 52.069C209.347 53.0708 208.411 53.8628 207.268 53.8425C206.125 53.8154 205.228 52.9828 205.258 51.981Z" fill="black"/>
</g>
</g>
</g>
</g>
<g opacity="0.4">
<g opacity="0.4">
<g opacity="0.4">
<g opacity="0.4">
<path opacity="0.4" d="M209.37 56.2253C209.386 55.6431 209.938 55.1828 210.598 55.1963C211.257 55.2099 211.779 55.6973 211.764 56.2794C211.748 56.8616 211.196 57.3219 210.536 57.3083C209.877 57.288 209.355 56.8074 209.37 56.2253Z" fill="black"/>
</g>
</g>
</g>
</g>
<g opacity="0.4">
<g opacity="0.4">
<g opacity="0.4">
<g opacity="0.4">
<path opacity="0.4" d="M207.767 59.4677C208.012 59.4744 208.204 59.6504 208.196 59.8671C208.189 60.0837 207.989 60.2529 207.744 60.2461C207.498 60.2394 207.307 60.0634 207.314 59.8467C207.322 59.6301 207.521 59.4609 207.767 59.4677Z" fill="black"/>
</g>
</g>
</g>
</g>
</g>
<defs>
<clipPath id="clip0">
<rect width="273" height="297" fill="white"/>
</clipPath>
</defs>
</svg>
